<svg width="34" height="34" viewBox="0 0 34 34" fill="none" xmlns="http://www.w3.org/2000/svg">
<path fill-rule="evenodd" clip-rule="evenodd" d="M34 34H27.2V22.1017C27.2 18.8377 25.7601 17.0166 23.1778 17.0166C20.3677 17.0166 18.7 18.9142 18.7 22.1017V34H11.9V11.9H18.7V14.3853C18.7 14.3853 20.8335 10.6416 25.6411 10.6416C30.4504 10.6416 34 13.5764 34 19.6488V34ZM4.1514 8.36553C1.8581 8.36553 0 6.49223 0 4.18193C0 1.87333 1.8581 0 4.1514 0C6.443 0 8.30109 1.87333 8.30109 4.18193C8.30279 6.49223 6.443 8.36553 4.1514 8.36553ZM0 34H8.5V11.9H0V34Z" fill="#5CBEFF"/>
</svg>
