<svg width="41" height="32" viewBox="0 0 41 32" fill="none" xmlns="http://www.w3.org/2000/svg">
<g clip-path="url(#clip0_576_485)">
<path fill-rule="evenodd" clip-rule="evenodd" d="M12.9573 31.8992C28.2356 31.8992 36.5925 19.6585 36.5925 9.04468C36.5925 8.69623 36.5925 8.35041 36.5682 8.00588C38.1938 6.8705 39.5967 5.46079 40.7122 3.84778C39.1979 4.49769 37.5885 4.9239 35.9426 5.11181C37.6755 4.10759 38.9732 2.52991 39.5947 0.668283C37.963 1.60399 36.1795 2.26437 34.319 2.6187C31.1731 -0.615176 25.9116 -0.771858 22.5652 2.27017C20.4092 4.23162 19.4921 7.15612 20.1622 9.94562C13.4836 9.62067 7.26054 6.57087 3.04164 1.55369C0.837035 5.22407 1.96464 9.91777 5.61468 12.2747C4.29273 12.2375 2.99912 11.8933 1.84318 11.2708V11.3727C1.8452 15.1958 4.63284 18.4877 8.50759 19.2453C7.28484 19.5683 6.00135 19.6151 4.75835 19.3822C5.84547 22.6552 8.96511 24.897 12.518 24.9616C9.57649 27.1971 5.94264 28.411 2.2015 28.4071C1.54154 28.4051 0.881572 28.3679 0.223633 28.2916C4.02348 30.6484 8.44281 31.8992 12.9573 31.8934" fill="#5CBEFF"/>
</g>
<defs>
<clipPath id="clip0_576_485">
<rect width="40.4886" height="31.8124" fill="white" transform="translate(0.223633 0.0871582)"/>
</clipPath>
</defs>
</svg>
