<svg width="330" height="330" viewBox="0 0 330 330" fill="none" xmlns="http://www.w3.org/2000/svg">
<path d="M6.68288 327.237H208.663" stroke="#7BC3D1" stroke-width="4"/>
<path d="M101.312 269.188H182.423" stroke="#7BC3D1" stroke-width="4"/>
<path d="M102.439 270.432L162.146 132.602" stroke="#7BC3D1" stroke-width="4"/>
<path d="M250.016 324.96L162.146 133.74" stroke="#7BC3D1" stroke-width="4"/>
<path d="M250.016 324.96L162.146 133.74" stroke="#7BC3D1" stroke-width="4"/>
<path d="M326.439 327.423L163.272 8.53662" stroke="#7BC3D1" stroke-width="4"/>
<path d="M3.30325 327.237L159.892 8.53659" stroke="#7BC3D1" stroke-width="4"/>
<path d="M326.62 327.237L248.889 327.237" stroke="#7BC3D1" stroke-width="4"/>
<path d="M206.644 326.098L180.42 268.049" stroke="#7BC3D1" stroke-width="4"/>
<path d="M161.823 0L166.329 9.67482H156.83L159.329 4.55286L160.456 2.27643L161.019 1.13821L161.823 0Z" fill="#7BC3D1"/>
<path d="M162.146 128.049L166.575 138.014L157.076 138.293L159.576 132.892L160.456 130.895L161.582 128.618L162.146 128.049Z" fill="#7BC3D1"/>
<path d="M103.882 262.358L108.388 271.464H99.3761L101.312 267.201L102.192 265.204L103.319 262.928L103.882 262.358Z" fill="#7BC3D1"/>
<path d="M4.99309 319.838L6.11964 324.391L9.49928 329.513H5.37177e-07L1.0502 326.668L2.25308 324.391L3.62605 322.115L4.18932 320.976L4.99309 319.838Z" fill="#7BC3D1"/>
<path d="M205.834 318.7L208.087 323.822L210.587 329.513H200.202L201.252 326.668L204.391 325.529L203.828 322.115L204.391 320.976L205.834 318.7Z" fill="#7BC3D1"/>
<path d="M325.084 320.407L330 329.513H323.241L324.89 325.014L325.084 322.836V322.229V320.407Z" fill="#7BC3D1"/>
<path d="M248.367 320.407L251.987 323.822L253.282 329.513L248.889 329.513L246.636 322.836H248.367V322.229V320.407Z" fill="#7BC3D1"/>
</svg>
