<svg width="96" height="96" viewBox="0 0 96 96" fill="none" xmlns="http://www.w3.org/2000/svg">
<path d="M0 83.6217C0 90.4588 5.54195 96 12.3783 96H83.6217C90.4588 96 96 90.4581 96 83.6217V12.3783C96 5.5412 90.4581 0 83.6217 0H12.3783C5.5412 0 0 5.54195 0 12.3783V83.6217Z" fill="#563D7C"/>
<path d="M39.8091 42.4643V28.8692H51.776C52.9157 28.8692 54.0147 28.9642 55.073 29.1542C56.1313 29.3441 57.0675 29.6833 57.8816 30.1717C58.6956 30.6602 59.3469 31.3386 59.8353 32.2069C60.3238 33.0753 60.568 34.1878 60.568 35.5446C60.568 37.9869 59.8353 39.7507 58.37 40.8361C56.9047 41.9216 55.0323 42.4643 52.7529 42.4643H39.8091ZM27.0281 18.9375V77.0625H55.1951C57.8002 77.0625 60.3373 76.7369 62.8067 76.0856C65.2761 75.4343 67.4741 74.4303 69.4007 73.0735C71.3274 71.7167 72.8605 69.9665 74.0003 67.8227C75.14 65.679 75.7098 63.1418 75.7098 60.2111C75.7098 56.5749 74.8279 53.4679 73.0641 50.89C71.3002 48.3121 68.6274 46.5075 65.0454 45.4764C67.6505 44.2281 69.6178 42.6271 70.9475 40.6733C72.2771 38.7195 72.942 36.2773 72.942 33.3466C72.942 30.633 72.4942 28.3537 71.5987 26.5084C70.7032 24.6632 69.4414 23.1843 67.8133 22.0717C66.1851 20.9591 64.2314 20.1586 61.9519 19.6702C59.6725 19.1817 57.1489 18.9375 54.381 18.9375H27.0281ZM39.8091 67.1308V51.1749H53.7298C56.4976 51.1749 58.7228 51.8126 60.4052 53.088C62.0876 54.3634 62.9288 56.4935 62.9288 59.4785C62.9288 60.9981 62.671 62.2463 62.1554 63.2232C61.6399 64.2001 60.9479 64.9735 60.0796 65.5433C59.2112 66.1132 58.2072 66.5202 57.0675 66.7644C55.9278 67.0087 54.7338 67.1308 53.4855 67.1308H39.8091Z" fill="white"/>
</svg>
