<svg width="103" height="104" viewBox="0 0 103 104" fill="none" xmlns="http://www.w3.org/2000/svg">
<path fill-rule="evenodd" clip-rule="evenodd" d="M51.5 0.244141C79.9435 0.244141 103 23.8823 103 53.0467C103 76.3711 88.2607 96.1575 67.8101 103.146C65.199 103.666 64.272 102.017 64.272 100.611C64.272 98.8706 64.3338 93.1852 64.3338 86.1194C64.3338 81.196 62.6858 77.9827 60.837 76.3449C72.306 75.0368 84.357 70.5714 84.357 50.2907C84.357 44.5227 82.3588 39.8158 79.0525 36.1181C79.5881 34.7843 81.3545 29.4135 78.5478 22.1417C78.5478 22.1417 74.2321 20.7268 64.4007 27.5557C60.2859 26.3867 55.8775 25.7985 51.5 25.7779C47.1225 25.7985 42.7193 26.3867 38.6096 27.5557C28.7679 20.7268 24.4419 22.1417 24.4419 22.1417C21.6455 29.4135 23.4119 34.7843 23.9424 36.1181C20.6515 39.8158 18.6379 44.5227 18.6379 50.2907C18.6379 70.5199 30.6631 75.0538 42.1013 76.3877C40.6284 77.7061 39.2945 80.0319 38.831 83.4463C35.8955 84.7956 28.4383 87.1308 23.8445 79.0608C23.8445 79.0608 21.1202 73.9874 15.9496 73.6166C15.9496 73.6166 10.9283 73.5498 15.5993 76.8252C15.5993 76.8252 18.9726 78.4475 21.3158 84.5502C21.3158 84.5502 24.3389 93.9745 38.6662 90.7815C38.692 95.1951 38.7383 99.3547 38.7383 100.611C38.7383 102.007 37.7907 103.64 35.2208 103.151C14.7547 96.1729 0 76.3762 0 53.0467C0 23.8823 23.0617 0.244141 51.5 0.244141Z" fill="white"/>
</svg>
