<svg width="76" height="108" viewBox="0 0 76 108" fill="none" xmlns="http://www.w3.org/2000/svg">
<path d="M6.91634 99.3214L0 21.2275H76L69.0761 99.309L37.9534 107.995L6.91634 99.3214Z" fill="#E44D26"/>
<path d="M38 101.355L63.1484 94.3361L69.0657 27.6123H38V101.355Z" fill="#F16529"/>
<path d="M38 56.5763H25.4102L24.5406 46.7684H38V37.1904H14.1422L14.3702 39.76L16.7086 66.154H38V56.5763ZM38 81.4509L37.9582 81.4624L27.3621 78.5819L26.6846 70.9433H17.1338L18.467 85.982L37.9565 91.4285L38 91.4161V81.4509Z" fill="#EBEBEB"/>
<path d="M7.07117 0.00488281H11.9061V4.81371H16.329V0.00488281H21.1642V14.5673H16.329V9.69104H11.9061V14.5673H7.07151L7.07117 0.00488281ZM27.5228 4.83423H23.2664V0.00488281H36.617V4.83423H32.3586V14.5673H27.5229V4.83423H27.5228ZM38.7355 0.00488281H43.7774L46.8788 5.12182L49.9771 0.00488281H55.0208V14.5673H50.2048V7.34922L46.8782 12.527H46.7952L43.4664 7.34922V14.5673H38.7354V0.00488281H38.7355ZM57.4267 0.00488281H62.2631V9.75398H69.063V14.5673H57.4267V0.00488281Z" fill="white"/>
<path d="M37.9672 56.5763V66.154H49.6833L48.5787 78.5759L37.9672 81.4589V91.4234L57.4722 85.982L57.6149 84.3634L59.851 59.1483L60.0832 56.5763H57.5195H37.9672ZM37.9672 37.1904V46.7684H60.949L61.1396 44.6155L61.5731 39.76L61.8008 37.1904H37.9672Z" fill="white"/>
</svg>
