<svg width="103" height="103" viewBox="0 0 103 103" fill="none" xmlns="http://www.w3.org/2000/svg">
<path d="M0 0H103V103H0V0Z" fill="#F7DF1E"/>
<path d="M27.0824 86.0745L34.9647 81.3042C36.4854 84.0004 37.8687 86.2816 41.1867 86.2816C44.3673 86.2816 46.3725 85.0374 46.3725 80.1981V47.2871H56.0519V80.3349C56.0519 90.3602 50.1754 94.9235 41.6017 94.9235C33.8585 94.9235 29.3638 90.9132 27.0823 86.0736" fill="black"/>
<path d="M61.3096 85.037L69.1909 80.4737C71.2656 83.862 73.9621 86.3508 78.7324 86.3508C82.7431 86.3508 85.3006 84.3456 85.3006 81.5799C85.3006 78.2612 82.6734 77.0857 78.2483 75.1504L75.8291 74.1126C68.8456 71.1401 64.213 67.4066 64.213 59.5245C64.213 52.2648 69.7441 46.7334 78.387 46.7334C84.5405 46.7334 88.9654 48.8769 92.1455 54.4774L84.6092 59.3169C82.9497 56.3441 81.1526 55.1689 78.3871 55.1689C75.5523 55.1689 73.7546 56.9665 73.7546 59.3169C73.7546 62.2208 75.5523 63.3965 79.7003 65.1943L82.12 66.2313C90.3477 69.7577 94.9803 73.3525 94.9803 81.4416C94.9803 90.1538 88.1355 94.924 78.9401 94.924C69.9519 94.924 64.144 90.6376 61.3097 85.037" fill="black"/>
</svg>
