<svg width="117" height="38" viewBox="0 0 117 38" fill="none" xmlns="http://www.w3.org/2000/svg">
<path fill-rule="evenodd" clip-rule="evenodd" d="M109.062 15.6628C108.956 15.6868 108.851 15.9507 108.851 16.0946C108.83 17.0539 108.808 19.5965 108.808 21.3233C108.808 21.3713 108.872 21.4671 108.935 21.4671C109.252 21.4911 110.012 21.5151 110.666 21.5151C111.574 21.5151 112.102 21.3713 112.398 21.2275C113.157 20.7957 113.516 19.8601 113.516 18.8288C113.516 16.5023 112.081 15.6148 109.948 15.6148C109.801 15.591 109.379 15.591 109.062 15.6628ZM114.509 26.3841C114.509 24.0097 112.967 22.6904 110.181 22.6904C110.054 22.6904 109.167 22.6664 108.956 22.7144C108.893 22.7384 108.808 22.7864 108.808 22.8585C108.808 24.5613 108.787 27.2717 108.851 28.3268C108.893 28.7826 109.188 29.4302 109.547 29.6221C109.927 29.862 110.793 29.9098 111.384 29.9098C113.052 29.9098 114.509 28.8546 114.509 26.3841ZM104.755 14.3438C104.966 14.3438 105.599 14.4156 107.225 14.4156C108.766 14.4156 109.991 14.3678 111.49 14.3678C113.326 14.3678 115.86 15.1112 115.86 18.2291C115.86 19.7643 114.91 20.9876 113.664 21.5872C113.601 21.6112 113.601 21.659 113.664 21.683C115.438 22.1868 117 23.4341 117 25.7845C117 28.0872 115.733 29.5501 113.896 30.4616C112.777 31.0132 111.384 31.2051 109.97 31.2051C108.893 31.2051 106.001 31.0612 104.396 31.1093C104.227 31.0372 104.544 30.1737 104.692 30.0299C105.072 30.0058 105.367 29.9818 105.768 29.838C106.338 29.6701 106.402 29.4783 106.486 28.4949C106.528 27.6554 106.528 24.6811 106.528 22.5705C106.528 19.6683 106.55 17.7016 106.528 16.7422C106.507 15.9988 106.275 15.7589 105.811 15.6148C105.452 15.543 104.86 15.4469 104.375 15.3751C104.269 15.2551 104.628 14.4396 104.755 14.3438ZM92.5732 29.2624C93.08 29.7179 94.0722 29.9098 94.9589 29.9098C96.099 29.9098 97.239 29.6701 98.3368 28.5427C99.4558 27.3915 100.237 25.6167 100.237 22.7864C100.237 20.076 99.329 17.8694 97.4713 16.5744C96.4157 15.8307 95.0644 15.519 93.5021 15.519C93.0377 15.519 92.5943 15.543 92.3199 15.6868C92.2565 15.7349 92.1088 15.9507 92.1088 16.0706C92.0665 16.5504 92.0665 20.2439 92.0665 22.4027C92.0665 24.6333 92.0665 27.7512 92.1088 28.1109C92.1088 28.4709 92.2565 29.0225 92.5732 29.2624ZM87.7807 14.3438C88.1819 14.3438 89.723 14.4156 90.462 14.4156C91.7921 14.4156 92.742 14.3438 95.2544 14.3438C97.3656 14.3438 99.139 14.9914 100.406 16.2144C101.947 17.7256 102.749 19.8123 102.749 22.3547C102.749 25.9764 101.292 28.0631 99.8357 29.2624C98.3791 30.4856 96.4789 31.2051 93.7767 31.2051C92.3411 31.2051 89.871 31.1571 87.823 31.133H87.8018C87.6964 30.9174 87.9707 30.0779 88.1396 30.0539C88.6885 29.9818 88.8363 29.9578 89.1109 29.838C89.5541 29.6461 89.6387 29.3822 89.7021 28.4949C89.7653 26.8399 89.7441 24.8492 89.7441 22.5946C89.7441 20.9876 89.7653 17.8454 89.723 16.838C89.6598 15.9988 89.3432 15.7829 88.7097 15.6388C88.393 15.567 87.9707 15.471 87.3797 15.3991C87.2952 15.2311 87.6752 14.4876 87.7807 14.3438Z" fill="white"/>
<path fill-rule="evenodd" clip-rule="evenodd" d="M62.2353 30.1975C61.7076 30.1255 61.3275 30.0297 60.8629 29.7898C60.7997 29.7418 60.694 29.5021 60.694 29.4061C60.6518 28.5666 60.6518 26.1681 60.6518 24.5612C60.6518 23.2659 60.4619 22.1388 59.9762 21.3473C59.4061 20.4358 58.5828 19.9082 57.5272 19.9082C56.5983 19.9082 55.3526 20.6279 54.3182 21.6352C54.2971 21.659 54.1282 21.8271 54.1493 21.5632C54.1493 21.2993 54.1916 20.7717 54.2127 20.412C54.2338 20.0761 54.065 19.9082 54.065 19.9082C53.3892 20.2919 51.4892 20.7957 50.7925 20.8675C50.2858 20.9876 50.1592 21.5392 50.687 21.731H50.7082C51.278 21.9229 51.6581 22.1388 51.9536 22.3546C52.1647 22.5465 52.1436 22.8104 52.1436 23.0263C52.1647 24.8251 52.1647 27.5832 52.1015 29.0944C52.0804 29.694 51.9326 29.9096 51.5526 30.0057L51.5947 29.9817C51.2992 30.0537 51.0669 30.1255 50.708 30.1735C50.5813 30.3174 50.5813 31.085 50.708 31.2529C50.9403 31.2529 52.1647 31.1809 53.1783 31.1809C54.5716 31.1809 55.2894 31.2529 55.6484 31.2529C55.7961 31.061 55.8384 30.3414 55.7538 30.1735C55.3527 30.1495 55.0571 30.1017 54.7828 30.0057C54.4027 29.9096 54.2971 29.694 54.2759 29.1902C54.2338 27.9189 54.2338 25.2328 54.2338 23.41C54.2338 22.9062 54.3605 22.6663 54.4871 22.5225C54.9726 22.0429 55.7538 21.707 56.4505 21.707C57.1261 21.707 57.5695 21.9469 57.9073 22.2588C58.3717 22.6904 58.5194 23.314 58.5828 23.7697C58.6883 24.8011 58.6463 26.8398 58.6463 28.6146C58.6463 29.5739 58.5828 29.8138 58.2662 29.9336C58.1185 30.0057 57.7384 30.1017 57.295 30.1495C57.1472 30.3174 57.1895 31.061 57.295 31.2289C57.9073 31.2289 58.6251 31.1568 59.6807 31.1568C60.9895 31.1568 61.8342 31.2289 62.1719 31.2289C62.2774 31.085 62.3197 30.3894 62.2352 30.1975H62.2353ZM68.0834 21.0356C66.9644 21.0356 66.2677 22.0189 66.2677 23.5539C66.2677 25.1128 66.8798 26.9116 68.6112 26.9116C68.9067 26.9116 69.4556 26.7678 69.7089 26.432C70.11 26.0003 70.3846 25.1368 70.3846 24.2255C70.3846 22.2348 69.5188 21.0356 68.0834 21.0356ZM67.9354 31.6366C67.5133 31.6366 67.2176 31.7805 67.0278 31.9005C66.1409 32.5479 65.7399 33.1715 65.7399 33.9152C65.7399 34.6106 65.972 35.1622 66.4789 35.642C67.091 36.2416 67.9354 36.5295 69.0122 36.5295C71.1656 36.5295 72.1157 35.2102 72.1157 33.9152C72.1157 33.0037 71.7146 32.4041 70.8913 32.0684C70.3001 31.7805 69.2233 31.6366 67.9354 31.6366ZM68.0834 37.8726C66.7955 37.8726 65.8665 37.5606 65.0644 36.8652C64.2831 36.1936 63.9454 35.1862 63.9454 34.4908C63.9454 34.2989 63.9876 33.7711 64.3677 33.2916C64.5998 33.0037 65.1064 32.4521 66.31 31.5168C66.3521 31.4928 66.3732 31.4688 66.3732 31.4207C66.3732 31.3727 66.3309 31.3247 66.2888 31.3009C65.2965 30.8692 65.001 30.1735 64.9164 29.7898V29.7418C64.8955 29.5979 64.8532 29.4541 65.0432 29.31C65.191 29.1902 65.4021 29.0463 65.6342 28.8785C65.9931 28.6386 66.3732 28.3747 66.6055 28.1588C66.6478 28.1108 66.6477 28.063 66.6477 28.015C66.6477 27.967 66.6055 27.9189 66.5632 27.8952C65.0855 27.3433 64.3465 26.0961 64.3465 24.2255C64.3465 23.0023 64.8321 21.8989 65.6976 21.2035C66.2888 20.6757 67.7666 20.0283 68.7378 20.0283H68.8012C69.7934 20.052 70.3423 20.2919 71.1234 20.6039C71.5457 20.7717 71.9469 20.8435 72.4958 20.8435C73.3191 20.8435 73.678 20.5558 73.9735 20.2201C73.9946 20.2679 74.0369 20.388 74.058 20.6997C74.0792 21.0116 73.9946 21.4671 73.7835 21.8031C73.6146 22.0667 73.2347 22.2588 72.8547 22.2588H72.749C72.369 22.2108 72.2001 22.1628 72.2001 22.1628L72.1157 22.2108C72.0946 22.2588 72.1157 22.3066 72.1369 22.3787L72.158 22.4267C72.2001 22.6426 72.2846 23.29 72.2846 23.458C72.2846 25.4247 71.5879 26.288 70.849 26.9356C70.1312 27.5352 69.3079 27.9189 68.3789 28.015C68.3578 28.015 68.2734 28.015 68.0834 28.039C67.9777 28.039 67.83 28.063 67.8088 28.063H67.7877C67.6188 28.1108 67.1967 28.3507 67.1967 28.7584C67.1967 29.1182 67.3867 29.5499 68.2943 29.6219C68.4844 29.6459 68.6744 29.6459 68.8856 29.67C70.0889 29.7658 71.5879 29.8858 72.2846 30.1495C73.2557 30.5572 73.868 31.5406 73.868 32.716C73.868 34.4908 72.749 36.1458 70.8913 37.1769C69.9834 37.6327 69.0756 37.8726 68.0834 37.8726ZM80.1173 21.1554C79.6738 21.1554 79.2726 21.2753 78.9771 21.5152C78.1538 22.0907 77.7315 23.2422 77.7315 24.9209C77.7315 28.063 79.1249 30.2696 81.1094 30.2696C81.7006 30.2696 82.165 30.0777 82.5662 29.694C83.1784 29.1182 83.4952 27.967 83.4952 26.36C83.4952 23.2422 82.1228 21.1554 80.1173 21.1554ZM80.4973 31.4207C76.9082 31.4207 75.6203 28.4227 75.6203 25.6166C75.6203 23.6499 76.317 22.1388 77.7104 21.0594C78.7027 20.364 79.885 19.9802 80.9405 19.9802C83.685 19.9802 85.6064 22.2108 85.6064 25.4247C85.6064 27.6072 84.8463 29.334 83.3895 30.3894C82.6928 30.917 81.4895 31.4207 80.4971 31.4207H80.4973ZM42.8755 21.1554C42.4321 21.1554 42.0311 21.2753 41.7354 21.5152C40.9121 22.0907 40.4898 23.2422 40.4898 24.9209C40.4898 28.063 41.8832 30.2696 43.8677 30.2696C44.4589 30.2696 44.9233 30.0777 45.3245 29.694C45.9366 29.1182 46.2535 27.967 46.2535 26.36C46.2535 23.2422 44.9022 21.1554 42.8755 21.1554ZM43.2556 31.4207C39.6665 31.4207 38.3786 28.4227 38.3786 25.6166C38.3786 23.6499 39.0753 22.1388 40.4686 21.0594C41.461 20.364 42.6432 19.9802 43.6988 19.9802C46.4435 19.9802 48.3647 22.2108 48.3647 25.4247C48.3647 27.6072 47.6046 29.334 46.1478 30.3894C45.4723 30.917 44.2689 31.4207 43.2556 31.4207ZM19.1245 31.1809C19.0822 31.1091 19.0399 30.8932 19.0611 30.6293C19.0611 30.4374 19.1033 30.3174 19.1245 30.2696C19.5677 30.1975 19.8 30.1255 20.0532 30.0537C20.4756 29.9336 20.6445 29.67 20.6656 29.0704C20.729 27.6313 20.729 24.8969 20.7079 23.0023V22.9542C20.7079 22.7384 20.7079 22.4745 20.4756 22.2826C20.1378 22.0429 19.7366 21.8271 19.2088 21.659C19.0188 21.5872 18.8922 21.4671 18.9133 21.3233C18.9133 21.1794 19.0399 21.0116 19.3145 20.9636C20.0112 20.8915 21.8267 20.388 22.5445 20.0283C22.5868 20.0761 22.6502 20.2201 22.6502 20.412L22.629 20.6757C22.6079 20.9396 22.5868 21.2515 22.5868 21.5632C22.5868 21.659 22.6713 21.731 22.7556 21.731C22.7979 21.731 22.8402 21.707 22.8825 21.683C24.2336 20.4838 25.458 20.052 26.0913 20.052C27.126 20.052 27.9281 20.6039 28.5405 21.755C28.5825 21.8271 28.6248 21.8509 28.6882 21.8509C28.7305 21.8509 28.7937 21.8271 28.8148 21.7791C30.0605 20.6997 31.3061 20.052 32.1294 20.052C34.0928 20.052 35.2541 21.707 35.2541 24.5132C35.2541 25.3046 35.2541 26.336 35.233 27.2715C35.233 28.1108 35.2118 28.8785 35.2118 29.4301C35.2118 29.5499 35.3596 29.9336 35.5919 30.0057C35.8874 30.1735 36.2885 30.2456 36.8163 30.3414H36.8375C36.8797 30.5092 36.7952 31.1328 36.7109 31.2529C36.584 31.2529 36.394 31.2529 36.1831 31.2289C35.7819 31.2049 35.2118 31.1809 34.5785 31.1809C33.2695 31.1809 32.594 31.2049 31.9394 31.2529C31.8973 31.061 31.8761 30.4854 31.9394 30.3414C32.3194 30.2696 32.5094 30.1975 32.7417 30.1255C33.164 29.9817 33.2695 29.7658 33.2906 29.1422C33.2906 28.6866 33.375 24.8011 33.2484 23.8656C33.1218 22.9062 32.4883 21.7791 31.0949 21.7791C30.5671 21.7791 29.7438 22.0189 28.9415 22.7144C28.8994 22.7624 28.8571 22.8822 28.8571 22.9542V22.9783C28.9415 23.4818 28.9415 24.0576 28.9415 24.9449V26.5039C28.9415 27.5832 28.9203 28.5906 28.9415 29.358C28.9415 29.8858 29.216 30.0057 29.4483 30.1017C29.5749 30.1255 29.6593 30.1495 29.765 30.1735C29.955 30.2215 30.145 30.2696 30.4405 30.3414C30.4828 30.4374 30.4828 30.7491 30.4194 31.013C30.3982 31.1569 30.356 31.2289 30.335 31.2529C29.6172 31.2289 28.8782 31.2049 27.8015 31.2049C27.4849 31.2049 26.9359 31.2289 26.4714 31.2289C26.0913 31.2289 25.7324 31.2529 25.5214 31.2529C25.5003 31.2049 25.458 31.037 25.458 30.7731C25.458 30.5572 25.5003 30.3894 25.5426 30.3414C25.6481 30.3174 25.7324 30.2936 25.8381 30.2936C26.0913 30.2456 26.3025 30.1975 26.5136 30.1495C26.8725 30.0297 26.9992 29.8138 27.0203 29.2862C27.0837 28.087 27.1469 24.6572 26.9992 23.7937C26.7459 22.4027 26.0492 21.707 24.9302 21.707C24.2758 21.707 23.4523 22.0667 22.7768 22.6426C22.6713 22.7384 22.5868 22.9783 22.5868 23.1941V24.6092C22.5868 26.336 22.5868 28.4948 22.6079 29.4301C22.629 29.7178 22.7134 30.0537 23.1991 30.1735C23.3046 30.1975 23.4735 30.2456 23.6846 30.2696L24.0647 30.3414C24.1069 30.4854 24.0858 31.061 24.0013 31.2529C23.7901 31.2529 23.5369 31.2289 23.2412 31.2289C22.7979 31.2049 22.2278 31.1809 21.5946 31.1809C20.8556 31.1809 20.3278 31.2049 19.9055 31.2289C19.61 31.1809 19.3777 31.1809 19.1245 31.1809Z" fill="white"/>
<path fill-rule="evenodd" clip-rule="evenodd" d="M8.01945 36.9365L7.15388 36.6006C7.15388 36.6006 7.25956 31.5878 5.67617 31.228C4.62058 29.8369 5.84506 -27.7748 9.64511 31.0362C9.64511 31.0362 8.33629 31.7796 8.10399 33.0509C7.85057 34.2982 8.01945 36.9365 8.01945 36.9365Z" fill="white"/>
<path fill-rule="evenodd" clip-rule="evenodd" d="M8.01945 36.9365L7.15388 36.6006C7.15388 36.6006 7.25956 31.5878 5.67617 31.228C4.62058 29.8369 5.84506 -27.7748 9.64511 31.0362C9.64511 31.0362 8.33629 31.7796 8.10399 33.0509C7.85057 34.2982 8.01945 36.9365 8.01945 36.9365Z" fill="#A6A385"/>
<path fill-rule="evenodd" clip-rule="evenodd" d="M8.48409 32.0918C8.48409 32.0918 16.0633 26.4315 14.2899 14.655C12.5799 6.09272 8.5473 3.28656 8.10405 2.20719C7.61852 1.43973 7.15393 0.0966797 7.15393 0.0966797L7.47077 23.913C7.47077 23.937 6.81615 31.2043 8.48409 32.0918Z" fill="white"/>
<path fill-rule="evenodd" clip-rule="evenodd" d="M8.48409 32.0918C8.48409 32.0918 16.0633 26.4315 14.2899 14.655C12.5799 6.09272 8.5473 3.28656 8.10405 2.20719C7.61852 1.43973 7.15393 0.0966797 7.15393 0.0966797L7.47077 23.913C7.47077 23.937 6.81615 31.2043 8.48409 32.0918Z" fill="#499D4A"/>
<path fill-rule="evenodd" clip-rule="evenodd" d="M6.71057 32.4038C6.71057 32.4038 -0.404234 26.8872 0.0180835 17.1734C0.419068 7.45936 5.44382 2.6864 6.41487 1.82288C7.04835 1.0554 7.06948 0.76748 7.11175 0C7.55501 1.07941 7.47066 16.142 7.53387 17.9168C7.72389 24.7526 7.1961 31.1087 6.71057 32.4038Z" fill="white"/>
<path fill-rule="evenodd" clip-rule="evenodd" d="M6.71057 32.4038C6.71057 32.4038 -0.404234 26.8872 0.0180835 17.1734C0.419068 7.45936 5.44382 2.6864 6.41487 1.82288C7.04835 1.0554 7.06948 0.76748 7.11175 0C7.55501 1.07941 7.47066 16.142 7.53387 17.9168C7.72389 24.7526 7.1961 31.1087 6.71057 32.4038Z" fill="#58AA50"/>
</svg>
