<svg width="101" height="104" viewBox="0 0 101 104" fill="none" xmlns="http://www.w3.org/2000/svg">
<path d="M17.9733 100.057L0 100.679L9.21337 91.3281L17.974 100.057L17.9733 100.057Z" fill="#F15A24"/>
<path d="M99.5025 53.677C96.1632 79.6664 72.3481 98.028 46.3166 94.6912C20.2808 91.3572 1.8863 67.5852 5.22553 41.598C8.56692 15.6093 32.377 -2.75454 58.415 0.583037C84.4494 3.9156 102.848 27.6897 99.5025 53.6763" fill="#F15A24"/>
<path d="M64.4829 34.1507C67.6061 37.4647 64.5238 45.3001 64.5238 45.3001C64.5238 45.3001 61.4773 56.3778 44.0349 70.743L40.7789 67.553L62.9209 44.9635L63.3485 44.3869C63.9376 43.4286 64.4255 34.0863 64.4829 34.1507Z" fill="#999999"/>
<path d="M64.4829 34.1507C67.6061 37.4647 64.5238 45.3001 64.5238 45.3001C64.5238 45.3001 61.4773 56.3778 44.0349 70.743L40.7789 67.553L62.9209 44.9635L63.3485 44.3869C63.9376 43.4286 64.4255 34.0863 64.4829 34.1507Z" stroke="white" stroke-width="1.918" stroke-linecap="round" stroke-linejoin="round"/>
<path d="M35.9968 62.857L64.4362 34.0693C65.8798 35.7804 66.1869 37.6239 65.7679 40.2503C65.4859 42.0695 62.3383 45.705 62.3383 45.705L40.7789 67.5532" fill="#666666"/>
<path d="M35.9968 62.857L64.4362 34.0693C65.8798 35.7804 66.1869 37.6239 65.7679 40.2503C65.4859 42.0695 62.3383 45.705 62.3383 45.705L40.7789 67.5532" stroke="white" stroke-width="1.201" stroke-linecap="round" stroke-linejoin="round"/>
<path d="M64.4828 34.171L35.9968 62.8577L36.0542 62.8018L36.0434 62.8061L28.9761 55.8545C43.7142 37.5545 53.2432 34.1424 53.2432 34.1424C53.2432 34.1424 59.4467 31.7252 63.8722 33.6009C64.2123 33.7829 64.3601 33.8874 64.4821 34.1718" fill="#FF931E"/>
<path d="M64.4828 34.171L35.9968 62.8577L36.0542 62.8018L36.0434 62.8061L28.9761 55.8545C43.7142 37.5545 53.2432 34.1424 53.2432 34.1424C53.2432 34.1424 59.4467 31.7252 63.8722 33.6009C64.2123 33.7829 64.3601 33.8874 64.4821 34.1718L64.4828 34.171Z" stroke="white" stroke-width="1.918" stroke-linecap="round" stroke-linejoin="round"/>
<path d="M44.0349 70.742C37.2388 76.3292 28.5413 85.1057 16.7191 91.2273L19.3487 102.449L8.20312 91.4908L35.9961 62.8564" fill="#999999"/>
<path d="M44.0349 70.742C37.2388 76.3292 28.5413 85.1058 16.7191 91.2273L19.3487 102.449L8.20312 91.4908L35.9961 62.8564" stroke="white" stroke-width="1.918" stroke-linecap="round" stroke-linejoin="round"/>
<path d="M29.1662 55.9481L36.0707 62.8131L20.12 66.2617L29.0134 55.8242L29.1669 55.9481H29.1662Z" fill="#F15A24"/>
<path d="M29.1662 55.9481L36.0707 62.8131L20.12 66.2617L29.0134 55.8242L29.1669 55.9481H29.1662Z" stroke="white" stroke-width="1.918" stroke-linecap="round" stroke-linejoin="round"/>
<path d="M61.7636 25.8461C61.0863 31.9483 65.4874 37.4417 71.6005 38.1221C77.7085 38.7996 83.2168 34.4027 83.8984 28.3027C84.5778 22.2027 80.1695 16.7036 74.0593 16.0253C67.9456 15.3513 62.4416 19.7425 61.7636 25.8461Z" fill="#999999"/>
<path d="M61.7636 25.8461C61.0863 31.9483 65.4874 37.4416 71.6005 38.1221C77.7085 38.7996 83.2168 34.4027 83.8984 28.3027C84.5778 22.2027 80.1695 16.7036 74.0593 16.0253C67.9456 15.3513 62.4416 19.7425 61.7636 25.8461Z" stroke="white" stroke-width="1.918" stroke-linecap="round" stroke-linejoin="round"/>
<path d="M82.299 33.217C84.3532 30.2211 84.247 25.739 83.8345 24.4111C83.3287 22.7853 82.1964 20.141 80.2219 18.7666L69.7809 28.3668C69.7809 28.3668 77.8054 36.9729 78.0142 37.0015C78.101 37.0115 80.4257 35.9487 82.299 33.217Z" fill="#666666"/>
<path d="M82.299 33.217C84.3532 30.2211 84.247 25.739 83.8345 24.4111C83.3287 22.7853 82.1964 20.141 80.2219 18.7666L69.7809 28.3668C69.7809 28.3668 77.8054 36.9729 78.0142 37.0015C78.101 37.0115 80.4257 35.9487 82.299 33.217ZM80.1925 25.6967C80.1925 25.6967 81.1963 28.1576 79.9227 30.0721L80.1925 25.6967Z" stroke="white" stroke-width="1.918" stroke-linecap="round" stroke-linejoin="round"/>
<path d="M41.0251 67.5574L29.5021 69.6044L36.4575 62.3906" fill="#666666"/>
<path d="M29.4338 55.998L44.083 69.7602M41.025 67.5571L29.502 69.604L36.4574 62.3903L41.025 67.5571Z" stroke="white" stroke-width="1.918" stroke-linecap="round" stroke-linejoin="round"/>
</svg>
