<svg width="111" height="111" viewBox="0 0 111 111" fill="none" xmlns="http://www.w3.org/2000/svg">
<path d="M91.2643 35.9772C90.1128 35.5317 88.9196 35.1102 87.6911 34.7116C87.893 33.7854 88.0783 32.8711 88.2431 31.9724C90.948 17.2152 89.1794 5.32674 83.1404 1.41255C77.3498 -2.34064 67.8797 1.57266 58.3153 10.928C57.3956 11.8276 56.4733 12.7801 55.5514 13.7783C54.9371 13.1178 54.3238 12.4796 53.7121 11.8691C43.6884 1.86579 33.6411 -2.34975 27.608 1.57577C21.8229 5.33984 20.1097 16.5161 22.5445 30.5016C22.7796 31.8525 23.0544 33.232 23.3652 34.6345C21.9433 35.0882 20.5705 35.5719 19.257 36.0864C7.50522 40.6915 0 47.9087 0 55.3949C0 63.1267 8.05686 70.8818 20.2972 75.5841C21.2632 75.9552 22.2655 76.3061 23.2985 76.6392C22.9632 78.1561 22.6715 79.6426 22.4267 81.0925C20.1052 94.8353 21.9182 105.748 27.6879 109.488C33.6474 113.351 43.6492 109.38 53.3885 99.8116C54.1582 99.0553 54.9308 98.2532 55.7047 97.4124C56.7078 98.4981 57.7093 99.5256 58.7055 100.489C68.1391 109.614 77.4563 113.298 83.2207 109.547C89.1743 105.673 91.1092 93.951 88.5972 79.6888C88.4053 78.5996 88.1821 77.4868 87.9313 76.3542C88.6337 76.1208 89.3233 75.8799 89.9956 75.6294C102.721 70.8907 111 63.2299 111 55.3949C111 47.8816 103.253 40.6158 91.2643 35.9772ZM88.5043 70.5704C87.8973 70.7963 87.2746 71.0146 86.64 71.2262C85.2352 66.2277 83.3392 60.9124 81.019 55.4209C83.2331 50.0601 85.0558 44.8129 86.4212 39.8467C87.5567 40.216 88.6588 40.6055 89.7208 41.0166C99.9925 44.991 106.258 50.8671 106.258 55.3949C106.258 60.2178 99.4914 66.4786 88.5043 70.5704ZM83.9454 80.7239C85.0562 87.0304 85.2148 92.7323 84.479 97.1897C83.8179 101.195 82.4884 103.865 80.8446 104.935C77.3465 107.211 69.8657 104.252 61.798 96.4493C60.8731 95.5548 59.9416 94.5997 59.007 93.5888C62.1347 89.7441 65.2606 85.2745 68.3114 80.3106C73.6774 79.7754 78.7471 78.9005 83.3445 77.706C83.571 78.7326 83.7721 79.7395 83.9454 80.7239ZM37.8424 104.541C34.4247 105.898 31.7027 105.937 30.0572 104.871C26.5559 102.601 25.1004 93.8393 27.0858 82.0865C27.3133 80.7405 27.5839 79.3579 27.8959 77.9447C32.443 79.0748 37.4755 79.888 42.8544 80.3781C45.9257 85.2355 49.1419 89.7002 52.383 93.6095C51.6749 94.3778 50.9695 95.1093 50.2681 95.7986C45.9615 100.03 41.6458 103.032 37.8424 104.541ZM21.8308 70.5409C16.4184 68.4617 11.9486 65.7593 8.88471 62.8105C6.13165 60.1605 4.74169 57.5297 4.74169 55.3949C4.74169 50.852 10.7676 45.0576 20.8179 41.1192C22.0373 40.6413 23.3139 40.1909 24.6386 39.7679C26.0276 44.8462 27.8497 50.1556 30.0485 55.5246C27.8212 60.9733 25.9733 66.3673 24.5707 71.5051C23.6262 71.2 22.7113 70.8789 21.8308 70.5409ZM27.1981 29.4781C25.112 17.4957 26.4974 8.45658 29.9837 6.18837C33.6972 3.77204 41.9088 7.21722 50.5635 15.8546C51.1167 16.4067 51.6721 16.9845 52.2291 17.5823C49.004 21.4745 45.8173 25.9057 42.7732 30.7343C37.5528 31.2782 32.5556 32.1518 27.9611 33.3217C27.6723 32.0157 27.4164 30.7326 27.1981 29.4781ZM75.0784 42.7665C73.9801 40.6342 72.8525 38.5523 71.703 36.5272C75.2446 37.0304 78.6378 37.6984 81.8244 38.5159C80.8677 41.9619 79.6753 45.565 78.2717 49.2587C77.2649 47.1102 76.1999 44.9439 75.0784 42.7665ZM55.5529 21.3912C57.7401 24.0545 59.9305 27.028 62.0849 30.2542C59.9139 30.139 57.716 30.079 55.5 30.079C53.3049 30.079 51.1232 30.1376 48.9657 30.2509C51.1223 27.0547 53.3316 24.0851 55.5529 21.3912ZM35.9024 42.8034C34.8052 44.9417 33.76 47.0962 32.769 49.2547C31.3881 45.5739 30.2068 41.9544 29.2418 38.4595C32.4088 37.6629 35.786 37.0116 39.3051 36.5179C38.1394 38.5616 37.0025 40.6588 35.9024 42.8029V42.8034ZM39.4064 74.6521C35.7706 74.1962 32.3426 73.5784 29.1764 72.8038C30.1568 69.2465 31.3642 65.5497 32.7743 61.7896C33.7679 63.9466 34.8173 66.102 35.9212 68.2449H35.9214C37.0458 70.4281 38.2107 72.5666 39.4064 74.6521ZM55.6841 89.7743C53.4367 87.0489 51.195 84.0341 49.0056 80.7912C51.1309 80.8849 53.2978 80.9329 55.5 80.9329C57.7625 80.9329 59.9991 80.8756 62.2005 80.7654C60.039 84.0667 57.8565 87.0862 55.6841 89.7743ZM78.317 61.598C79.8006 65.3987 81.0512 69.0761 82.0443 72.5728C78.8259 73.3981 75.3511 74.0627 71.69 74.5566C72.8423 72.5042 73.9797 70.3866 75.0974 68.2083C76.2282 66.0045 77.3018 63.7973 78.317 61.598ZM70.99 65.5457C69.2548 68.9271 67.4735 72.1551 65.665 75.2021C62.3712 75.4669 58.9683 75.6032 55.5 75.6032C52.0457 75.6032 48.6857 75.4826 45.4502 75.2466C43.5688 72.1596 41.7487 68.922 40.0247 65.5748H40.0251C38.3055 62.2366 36.7229 58.8703 35.2889 55.5228C36.7225 52.1676 38.301 48.7975 40.0106 45.4653L40.0102 45.466C41.7244 42.1249 43.5285 38.9032 45.3925 35.8355C48.6936 35.555 52.0787 35.4087 55.4998 35.4087H55.5C58.9365 35.4087 62.3259 35.5561 65.6261 35.8391C67.4616 38.8843 69.2534 42.0956 70.9743 45.4371C72.7148 48.8161 74.3136 52.1638 75.7595 55.4471C74.318 58.7868 72.7227 62.1682 70.99 65.5457ZM80.7719 6.02981C84.4889 8.43904 85.9344 18.1555 83.599 30.8967C83.45 31.7097 83.2823 32.5378 83.1001 33.377C78.495 32.1827 73.4943 31.294 68.2586 30.7419C65.2086 25.8601 62.0479 21.4221 58.8754 17.5799C59.7284 16.6576 60.5801 15.7782 61.4283 14.9483C69.6231 6.93275 77.2822 3.76804 80.7719 6.02981ZM55.5 44.2544C60.9741 44.2544 65.4119 49.242 65.4119 55.3949C65.4119 61.5476 60.9741 66.5355 55.5 66.5355C50.0259 66.5355 45.5881 61.5476 45.5881 55.3949C45.5881 49.242 50.0259 44.2544 55.5 44.2544Z" fill="#00D8FF"/>
</svg>
