<svg width="103" height="103" viewBox="0 0 103 103" fill="none" xmlns="http://www.w3.org/2000/svg">
<path d="M50.4185 23.3292C33.784 23.8579 28.84 35.7407 27.707 42.1782C29.1833 39.792 33.8355 34.5563 40.685 34.5563C48.6675 34.5563 54.7445 43.4658 58.4525 46.2468C62.9574 49.6255 72.0097 54.0866 83.8935 50.4698C93.3695 47.5858 97.7642 37.526 98.7255 32.7537C94.142 38.9852 87.1895 42.7281 78.589 38.3157C72.6665 35.2772 68.2375 22.7628 50.4185 23.3292Z" fill="#07B6D5"/>
<path d="M26.883 51.6026C10.2485 52.1313 5.30451 64.0141 4.17151 70.4516C5.64784 68.0654 10.3 62.8297 17.1495 62.8297C25.132 62.8297 31.209 71.7392 34.917 74.5202C39.4219 77.8989 48.4742 82.3601 60.358 78.7432C69.834 75.8592 74.2287 65.7994 75.19 61.0271C70.6065 67.2586 63.654 71.0015 55.0535 66.5891C49.131 63.5506 44.702 51.0362 26.883 51.6026Z" fill="#07B6D5"/>
</svg>
