<svg width="103" height="103" viewBox="0 0 103 103" fill="none" xmlns="http://www.w3.org/2000/svg">
<path d="M0 51.5V103H51.5H103V51.5V0H51.5H0V51.5Z" fill="#007ACC"/>
<path d="M22.7771 51.8416L22.7444 56.0597H29.4476L36.1508 56.0597V75.1065V94.1533H40.8921H45.6333V75.1065L45.6333 56.0597H52.3365H59.0397V51.9233C59.0397 49.6344 58.9906 47.7216 58.9252 47.6725C58.8762 47.6071 50.7179 47.5744 40.8267 47.5908L22.8262 47.6398L22.7771 51.8416Z" fill="white"/>
<path d="M83.1108 47.5199C85.7266 48.1739 87.7212 49.3347 89.5523 51.2312C90.5006 52.2448 91.9066 54.0923 92.0211 54.5337C92.0538 54.6645 87.5741 57.6728 84.8601 59.3567C84.762 59.4221 84.3696 58.9971 83.9282 58.3431C82.6039 56.4139 81.2142 55.5801 79.0888 55.4329C75.9662 55.2204 73.9552 56.8553 73.9716 59.5856C73.9716 60.3867 74.086 60.8609 74.413 61.5148C75.0996 62.9372 76.3749 63.7874 80.3804 65.5204C87.7539 68.6921 90.9093 70.7848 92.8712 73.7604C95.062 77.0793 95.5525 82.3764 94.0647 86.3166C92.4298 90.6001 88.3752 93.5102 82.6693 94.4748C80.9036 94.7855 76.7182 94.7364 74.8217 94.3931C70.6854 93.6574 66.7615 91.6137 64.3419 88.9325C63.3936 87.8861 61.5462 85.1558 61.6606 84.9596C61.7096 84.8942 62.1347 84.6326 62.6089 84.3547C63.0666 84.0931 64.7996 83.0958 66.4346 82.1475L69.3938 80.4309L70.015 81.3464C70.8816 82.6707 72.7781 84.4855 73.9225 85.0904C77.2087 86.8234 81.7211 86.5782 83.9446 84.5836C84.8928 83.7171 85.2852 82.8178 85.2852 81.4936C85.2852 80.3001 85.1381 79.7769 84.5168 78.8777C83.7157 77.7332 82.0808 76.7686 77.4376 74.7577C72.1241 72.4688 69.8352 71.0464 67.7425 68.7902C66.5327 67.4823 65.3882 65.3896 64.9141 63.6402C64.5217 62.1851 64.4236 58.5393 64.7342 57.0678C65.8296 51.9342 69.7044 48.3537 75.2958 47.291C77.1106 46.9477 81.3287 47.0785 83.1108 47.5199Z" fill="white"/>
</svg>
