<svg width="90" height="103" viewBox="0 0 90 103" fill="none" xmlns="http://www.w3.org/2000/svg">
<path d="M45 0L90 25.7457V77.2543L45 103L0 77.2543V25.7457L45 0Z" fill="white"/>
<path d="M81.9679 75.468L46.4943 95.7863V79.9851L68.6037 67.6704L81.9679 75.468ZM84.3962 73.2523V30.795L71.4226 38.3693V65.678L84.3962 73.2523ZM7.8962 75.468L43.3698 95.7692V79.9679L21.2603 67.6704L7.8962 75.468ZM5.4679 73.2523V30.795L18.4415 38.3693V65.678L5.4679 73.2523ZM6.97922 28.0469L43.3698 7.23047V22.5165L20.0547 35.4838L19.8679 35.5869L6.97922 28.0469ZM82.8679 28.0469L46.4943 7.23047V22.5165L69.7924 35.501L69.9792 35.6041L82.8679 28.0469Z" fill="#8ED6FB"/>
<path d="M43.3698 76.3785L21.566 64.2357V40.2076L43.3698 52.9344V76.3785ZM46.4943 76.3785L68.2981 64.2529V40.2076L46.4943 52.9344V76.3785ZM23.0264 37.4252L44.9321 25.248L66.8208 37.4252L44.9321 50.2036L23.0264 37.4252Z" fill="#1C78C0"/>
</svg>
