<svg width="47" height="47" viewBox="0 0 47 47" fill="none" xmlns="http://www.w3.org/2000/svg">
<path d="M47 23.5C47 36.4787 36.4787 47 23.5 47C10.5213 47 0 36.4787 0 23.5C0 10.5213 10.5213 0 23.5 0C36.4787 0 47 10.5213 47 23.5Z" fill="#7BC3D1"/>
<g clip-path="url(#clip0_10_262)">
<path fill-rule="evenodd" clip-rule="evenodd" d="M23.9519 34.8709V23.6136H27.4732L28.0484 18.6104H23.9519V16.1735C23.9519 14.8852 23.9859 13.6072 25.8407 13.6072H27.7194V10.03C27.7194 9.97624 26.1056 9.85474 24.4731 9.85474C21.0636 9.85474 18.9287 11.9276 18.9287 15.7338V18.6104H15.1613V23.6136H18.9287V34.8709H23.9519Z" fill="black"/>
</g>
<defs>
<clipPath id="clip0_10_262">
<rect width="12.8871" height="25.0161" fill="white" transform="translate(15.1613 9.85474)"/>
</clipPath>
</defs>
</svg>
