<svg width="68" height="67" viewBox="0 0 68 67" fill="none" xmlns="http://www.w3.org/2000/svg">
<path d="M44.3835 20.196L44.3903 20.1904L44.3967 20.1843C45.0911 19.519 46.1949 19.5428 46.8601 20.2372L48.4257 21.8717C49.0909 22.5661 49.0672 23.6698 48.3727 24.3351L48.3664 24.3412L48.3605 24.3477L17.4677 58.4195C16.7729 59.0787 15.6737 59.0531 15.0104 58.3606L8.96853 52.0532C8.30525 51.3608 8.32689 50.2615 9.01536 49.5957L44.3835 20.196Z" fill="#FEBE10" stroke="black" stroke-width="0.5"/>
<path d="M53.1873 10.3216L48.043 14.2053L42.0853 7.98568L46.708 3.55757L53.1873 10.3216Z" fill="#58595B" stroke="black" stroke-width="0.5"/>
<path d="M47.946 25.0635L47.5917 25.3239L43.4173 20.9661C43.6809 20.6869 44.0253 20.2362 44.3847 19.6924C44.8446 18.9966 45.3446 18.1248 45.7529 17.2095C46.1603 16.2965 46.4822 15.3274 46.5754 14.4404C46.6589 13.6446 46.5609 12.8814 46.1377 12.2923L50.9674 7.66595C51.0836 7.55457 51.3253 7.42023 51.599 7.38339C51.8624 7.34796 52.1358 7.40386 52.3616 7.63956C53.2252 8.5411 53.9535 9.2969 54.7619 10.1357C54.862 10.2396 54.9633 10.3448 55.0663 10.4516C56.0007 11.4214 57.0701 12.532 58.5804 14.1086C58.8804 14.4218 59.1632 14.7071 59.4281 14.9744C59.9826 15.534 60.4589 16.0145 60.8505 16.5058C61.4174 17.217 61.7839 17.926 61.9018 18.8754C62.021 19.8348 61.8887 21.0594 61.4156 22.8035C60.9429 24.5461 60.1353 26.7889 58.9195 29.7782C58.4671 30.8785 57.9257 31.59 57.4378 31.996C56.937 32.4127 56.5414 32.4734 56.3474 32.405C55.9129 32.243 55.617 31.8375 55.4829 31.151C55.3482 30.4611 55.3886 29.531 55.5963 28.4163L55.5964 28.4159C55.7985 27.321 56.0428 26.4075 56.2602 25.6303C56.29 25.5236 56.3195 25.419 56.3484 25.3167C56.5278 24.68 56.6836 24.1274 56.7633 23.65C56.8565 23.0926 56.8546 22.5952 56.6412 22.1491C56.4273 21.7019 56.0221 21.3495 55.4038 21.0338C55.1866 20.9209 54.9691 20.844 54.7298 20.8256C54.4898 20.8071 54.2457 20.8486 53.9764 20.9469C53.4511 21.1386 52.7901 21.5628 51.8164 22.2539C51.2585 22.6442 50.1575 23.4447 49.1979 24.1462C48.7174 24.4974 48.2716 24.8244 47.946 25.0635Z" fill="#58595B" stroke="black" stroke-width="0.5"/>
<path d="M55.4025 21.0102C55.3888 21.0033 55.3752 20.9966 55.3617 20.99C55.4193 20.9775 55.4735 20.9697 55.5249 20.966C55.734 20.9507 55.9233 21.0004 56.1534 21.1165C56.7217 21.4066 57.0205 21.6942 57.1693 22.0044C57.3188 22.3161 57.3379 22.6937 57.2529 23.2117C57.1784 23.6652 57.0305 24.1941 56.8488 24.8438C56.8216 24.9409 56.7937 25.0407 56.7652 25.1433C56.5475 25.9262 56.2992 26.8571 56.093 27.9739C55.8802 29.1159 55.8284 30.1171 55.9805 30.896C56.1044 31.5303 56.3712 32.0455 56.8205 32.3482C56.6119 32.4235 56.4513 32.422 56.3522 32.3839L56.3522 32.3839L56.3495 32.3829C55.9142 32.2213 55.6177 31.8157 55.4834 31.1284C55.3487 30.4384 55.3891 29.5083 55.5968 28.3936L55.5969 28.3932C55.799 27.2983 56.0433 26.3849 56.2607 25.6076C56.2906 25.5009 56.32 25.3964 56.3489 25.294C56.5283 24.6573 56.6841 24.1047 56.7639 23.6274C56.857 23.0699 56.8551 22.5725 56.6417 22.1264C56.4278 21.679 56.0223 21.3265 55.4035 21.0107L55.4035 21.0107L55.4025 21.0102Z" fill="#333334" stroke="black" stroke-width="0.5"/>
<path d="M43.422 20.994L43.3802 20.9503C44.3715 19.6126 45.408 17.9335 46.0223 16.3542C46.3425 15.531 46.5534 14.7215 46.5761 13.9941C46.5961 13.353 46.4699 12.7587 46.1267 12.2806L46.4747 11.9473L46.5909 12.0758C46.9921 12.5192 47.1277 13.1633 47.0444 13.9583C46.9613 14.7518 46.6629 15.6583 46.2447 16.5762C45.4609 18.2967 44.2804 20.0052 43.422 20.994Z" fill="#333334" stroke="black" stroke-width="0.5"/>
<path d="M45.4753 1.1191L48.7237 4.51025L42.8809 10.107L39.6325 6.71589L45.4753 1.1191Z" fill="#58595B" stroke="black" stroke-width="0.5"/>
<g clip-path="url(#clip0_553_844)">
<path d="M54.3639 46.7005L54.5043 46.8404L61.7267 54.0398C61.7527 53.9022 61.7821 53.727 61.8092 53.5196C61.8811 52.9692 61.9366 52.1944 61.8705 51.299C61.7385 49.5085 61.1219 47.2444 59.1866 45.3208C57.2509 43.3967 54.9119 42.7175 52.904 42.6224C51.8998 42.5749 50.9812 42.6737 50.2424 42.8347C49.4977 42.997 48.9534 43.2187 48.6865 43.4046L48.5494 43.5002L48.431 43.3822L25.469 20.4917L25.3658 20.3888L25.432 20.2592L25.432 20.2591L25.4321 20.2591L25.4323 20.2587L25.4335 20.2562L25.4391 20.245C25.4441 20.2349 25.4516 20.2192 25.4614 20.1984C25.4811 20.1566 25.5097 20.094 25.5446 20.0121C25.6146 19.8483 25.7099 19.6077 25.8099 19.3037C26.0099 18.6952 26.2275 17.8352 26.2983 16.83C26.4396 14.8233 25.9968 12.2384 23.6517 9.90501C21.557 7.82194 19.2486 7.17695 17.4624 7.05114C16.5684 6.98817 15.8054 7.05541 15.2668 7.1382C15.0619 7.16969 14.8897 7.20339 14.7554 7.23294L22.0098 14.4412L22.1518 14.5824L22.0105 14.7243L15.4455 21.3133L15.3045 21.4548L15.1629 21.3141L7.90951 14.1068C7.87609 14.2385 7.83729 14.4088 7.80018 14.6124C7.70461 15.1366 7.62047 15.88 7.66708 16.7536C7.76017 18.498 8.37422 20.7629 10.4684 22.8454C14.6483 27.002 19.6362 25.3716 21.0104 24.7324L21.1371 24.6735L21.236 24.7722L44.174 47.6625L44.2766 47.7648L44.2114 47.8941L44.2113 47.8942L44.2111 47.8945L44.2099 47.897L44.2044 47.9082C44.1995 47.9184 44.192 47.9341 44.1823 47.955C44.1629 47.9969 44.1346 48.0598 44.1001 48.1421C44.0311 48.3067 43.9372 48.5487 43.8395 48.8547C43.6438 49.4672 43.4332 50.3341 43.3735 51.3505C43.2543 53.3791 43.7352 56.0047 46.1481 58.4059L54.3639 46.7005ZM54.3639 46.7005L54.2227 46.8396L47.5974 53.3684L47.4537 53.51L47.5966 53.6525L54.891 60.9238M54.3639 46.7005L54.891 60.9238M54.891 60.9238C54.7574 60.9546 54.5858 60.9901 54.3816 61.0238C53.848 61.1118 53.0932 61.1871 52.2112 61.136C50.449 61.0338 48.1813 60.4275 46.1482 58.406L54.891 60.9238Z" fill="#A7A9AC" stroke="black" stroke-width="0.4"/>
<path d="M45.5123 44.756C44.583 45.6853 43.0361 45.6636 42.0708 44.6982L24.3331 26.9606C23.3678 25.9953 23.3461 24.4484 24.2754 23.519C25.2048 22.5897 26.7516 22.6114 27.717 23.5767L45.4667 41.3265C46.4199 42.2797 46.4536 43.8147 45.5123 44.756Z" fill="#58595B"/>
</g>
<defs>
<clipPath id="clip0_553_844">
<rect width="20.8187" height="69.2819" fill="white" transform="translate(2.39966 17.6416) rotate(-45)"/>
</clipPath>
</defs>
</svg>
