<svg width="33" height="32" viewBox="0 0 33 32" fill="none" xmlns="http://www.w3.org/2000/svg">
<g clip-path="url(#clip0_576_480)">
<path d="M22.3722 0L10.4425 0C4.95291 0 0.50116 4.45175 0.50116 9.94139L0.50116 21.8711C0.50116 27.3607 4.95291 31.8124 10.4425 31.8124H22.3722C27.8618 31.8124 32.3136 27.3607 32.3136 21.8711V9.94139C32.3136 4.45175 27.8618 0 22.3722 0ZM29.3312 21.8711C29.3312 25.7084 26.2096 28.83 22.3722 28.83H10.4425C6.60517 28.83 3.48358 25.7084 3.48358 21.8711L3.48358 9.94139C3.48358 6.10401 6.60517 2.98242 10.4425 2.98242L22.3722 2.98242C26.2096 2.98242 29.3312 6.10401 29.3312 9.94139V21.8711Z" fill="#5CBEFF"/>
<path d="M16.4074 7.95312C12.0153 7.95312 8.45425 11.5141 8.45425 15.9062C8.45425 20.2983 12.0153 23.8593 16.4074 23.8593C20.7995 23.8593 24.3605 20.2983 24.3605 15.9062C24.3605 11.5141 20.7995 7.95313 16.4074 7.95312ZM16.4074 20.8769C13.6675 20.8769 11.4367 18.6461 11.4367 15.9062C11.4367 13.1644 13.6675 10.9355 16.4074 10.9355C19.1472 10.9355 21.3781 13.1644 21.3781 15.9062C21.3781 18.6461 19.1472 20.8769 16.4074 20.8769Z" fill="#5CBEFF"/>
<path d="M24.957 8.41638C25.5423 8.41638 26.0167 7.94191 26.0167 7.35663C26.0167 6.77134 25.5423 6.29688 24.957 6.29688C24.3717 6.29688 23.8972 6.77134 23.8972 7.35663C23.8972 7.94191 24.3717 8.41638 24.957 8.41638Z" fill="#5CBEFF"/>
</g>
<defs>
<clipPath id="clip0_576_480">
<rect width="31.8124" height="31.8124" fill="white" transform="translate(0.50116)"/>
</clipPath>
</defs>
</svg>
