<svg width="190" height="31" viewBox="0 0 190 31" fill="none" xmlns="http://www.w3.org/2000/svg">
<path d="M12.8418 24.0835V26H3.95508V24.0835H12.8418ZM4.41895 8.22656V26H2.06299V8.22656H4.41895ZM22.6787 26.2441C21.7591 26.2441 20.925 26.0895 20.1763 25.7803C19.4357 25.4629 18.7969 25.0194 18.2598 24.4497C17.7308 23.88 17.3239 23.2046 17.0391 22.4233C16.7542 21.6421 16.6118 20.7876 16.6118 19.8599V19.3472C16.6118 18.2729 16.7705 17.3167 17.0879 16.4785C17.4053 15.6322 17.8366 14.916 18.3818 14.3301C18.9271 13.7441 19.5456 13.3006 20.2373 12.9995C20.929 12.6984 21.6452 12.5479 22.3857 12.5479C23.3298 12.5479 24.1436 12.7106 24.8271 13.0361C25.5189 13.3617 26.0845 13.8174 26.5239 14.4033C26.9634 14.9811 27.2889 15.6647 27.5005 16.4541C27.7121 17.2354 27.8179 18.0898 27.8179 19.0176V20.0308H17.9546V18.1875H25.5596V18.0166C25.527 17.4307 25.4049 16.861 25.1934 16.3076C24.9899 15.7542 24.6644 15.2985 24.2168 14.9404C23.7692 14.5824 23.1589 14.4033 22.3857 14.4033C21.873 14.4033 21.401 14.5132 20.9697 14.7329C20.5384 14.9445 20.1681 15.2619 19.8589 15.6851C19.5496 16.1082 19.3096 16.625 19.1387 17.2354C18.9678 17.8457 18.8823 18.5496 18.8823 19.3472V19.8599C18.8823 20.4865 18.9678 21.0765 19.1387 21.6299C19.3177 22.1751 19.5741 22.6553 19.9077 23.0703C20.2495 23.4854 20.6605 23.8109 21.1406 24.0469C21.6289 24.2829 22.1823 24.4009 22.8008 24.4009C23.5983 24.4009 24.2738 24.2381 24.8271 23.9126C25.3805 23.5871 25.8647 23.1517 26.2798 22.6064L27.647 23.6929C27.3621 24.1242 27 24.5352 26.5605 24.9258C26.1211 25.3164 25.5799 25.6338 24.937 25.8779C24.3022 26.1221 23.5495 26.2441 22.6787 26.2441ZM40.2427 23.7417V16.9424C40.2427 16.4215 40.1369 15.9699 39.9253 15.5874C39.7218 15.1968 39.4126 14.8957 38.9976 14.6841C38.5825 14.4725 38.0698 14.3667 37.4595 14.3667C36.8898 14.3667 36.3893 14.4644 35.958 14.6597C35.5348 14.855 35.2012 15.1113 34.957 15.4287C34.721 15.7461 34.603 16.0879 34.603 16.4541H32.3447C32.3447 15.9821 32.4668 15.5142 32.7109 15.0503C32.9551 14.5864 33.305 14.1673 33.7607 13.793C34.2246 13.4105 34.778 13.1094 35.4209 12.8896C36.0719 12.6618 36.7962 12.5479 37.5938 12.5479C38.554 12.5479 39.4004 12.7106 40.1328 13.0361C40.8734 13.3617 41.4512 13.854 41.8662 14.5132C42.2894 15.1642 42.501 15.9821 42.501 16.9668V23.1191C42.501 23.5586 42.5376 24.0265 42.6108 24.5229C42.6922 25.0194 42.8102 25.4466 42.9648 25.8047V26H40.6089C40.495 25.7396 40.4054 25.3937 40.3403 24.9624C40.2752 24.5229 40.2427 24.116 40.2427 23.7417ZM40.6333 17.9922L40.6577 19.5791H38.375C37.7321 19.5791 37.1584 19.632 36.6538 19.7378C36.1493 19.8354 35.7261 19.986 35.3843 20.1895C35.0425 20.3929 34.7821 20.6493 34.603 20.9585C34.424 21.2596 34.3345 21.6136 34.3345 22.0205C34.3345 22.4355 34.4281 22.814 34.6152 23.1558C34.8024 23.4976 35.0832 23.7702 35.4575 23.9736C35.84 24.1689 36.3079 24.2666 36.8613 24.2666C37.5531 24.2666 38.1634 24.1201 38.6924 23.8271C39.2214 23.5342 39.6405 23.1761 39.9497 22.7529C40.2671 22.3298 40.438 21.9188 40.4624 21.52L41.4268 22.6064C41.3698 22.9482 41.2152 23.3267 40.9629 23.7417C40.7106 24.1567 40.3729 24.5555 39.9497 24.938C39.5347 25.3123 39.0382 25.6257 38.4604 25.8779C37.8908 26.1221 37.2479 26.2441 36.5317 26.2441C35.6366 26.2441 34.8512 26.0692 34.1758 25.7192C33.5085 25.3693 32.9876 24.9014 32.6133 24.3154C32.2471 23.7214 32.064 23.0581 32.064 22.3257C32.064 21.6177 32.2023 20.9951 32.479 20.458C32.7557 19.9128 33.1545 19.4611 33.6753 19.103C34.1961 18.7368 34.8228 18.4601 35.5552 18.2729C36.2876 18.0858 37.1055 17.9922 38.0088 17.9922H40.6333ZM50.3115 14.8672V26H48.0532V12.792H50.2505L50.3115 14.8672ZM54.4375 12.7188L54.4253 14.8184C54.2381 14.7777 54.0591 14.7533 53.8882 14.7451C53.7254 14.7288 53.5382 14.7207 53.3267 14.7207C52.8058 14.7207 52.346 14.8021 51.9473 14.9648C51.5485 15.1276 51.2108 15.3555 50.9341 15.6484C50.6574 15.9414 50.4377 16.2913 50.2749 16.6982C50.1203 17.097 50.0186 17.5365 49.9697 18.0166L49.335 18.3828C49.335 17.5853 49.4123 16.8366 49.5669 16.1367C49.7297 15.4368 49.9779 14.8184 50.3115 14.2812C50.6452 13.736 51.0684 13.3128 51.5811 13.0117C52.1019 12.7025 52.7204 12.5479 53.4365 12.5479C53.5993 12.5479 53.7865 12.5682 53.998 12.6089C54.2096 12.6414 54.3561 12.6781 54.4375 12.7188ZM60.7832 15.6118V26H58.5249V12.792H60.6611L60.7832 15.6118ZM60.2461 18.8955L59.3062 18.8589C59.3143 17.9556 59.4486 17.1214 59.709 16.3564C59.9694 15.5833 60.3356 14.9119 60.8076 14.3423C61.2796 13.7726 61.8411 13.3332 62.4922 13.0239C63.1514 12.7065 63.8797 12.5479 64.6772 12.5479C65.3283 12.5479 65.9142 12.6374 66.4351 12.8164C66.9559 12.9873 67.3994 13.264 67.7656 13.6465C68.14 14.029 68.4248 14.5254 68.6201 15.1357C68.8154 15.738 68.9131 16.4744 68.9131 17.3452V26H66.6426V17.3208C66.6426 16.6291 66.5409 16.0757 66.3374 15.6606C66.134 15.2375 65.8369 14.9323 65.4463 14.7451C65.0557 14.5498 64.5755 14.4521 64.0059 14.4521C63.4443 14.4521 62.9316 14.5701 62.4678 14.8062C62.012 15.0422 61.6174 15.3677 61.2837 15.7827C60.9582 16.1978 60.7018 16.6738 60.5146 17.2109C60.3356 17.7399 60.2461 18.3014 60.2461 18.8955ZM83.6309 8.22656H85.9136L91.7363 22.7163L97.5469 8.22656H99.8418L92.6152 26H90.833L83.6309 8.22656ZM82.8862 8.22656H84.9004L85.23 19.0664V26H82.8862V8.22656ZM98.5601 8.22656H100.574V26H98.2305V19.0664L98.5601 8.22656ZM105.772 19.5425V19.2617C105.772 18.3096 105.911 17.4266 106.188 16.6128C106.464 15.7909 106.863 15.0788 107.384 14.4766C107.905 13.8662 108.535 13.3942 109.276 13.0605C110.016 12.7188 110.847 12.5479 111.766 12.5479C112.694 12.5479 113.528 12.7188 114.269 13.0605C115.017 13.3942 115.652 13.8662 116.173 14.4766C116.702 15.0788 117.105 15.7909 117.381 16.6128C117.658 17.4266 117.796 18.3096 117.796 19.2617V19.5425C117.796 20.4946 117.658 21.3776 117.381 22.1914C117.105 23.0052 116.702 23.7173 116.173 24.3276C115.652 24.9299 115.021 25.4019 114.281 25.7437C113.548 26.0773 112.718 26.2441 111.791 26.2441C110.863 26.2441 110.029 26.0773 109.288 25.7437C108.548 25.4019 107.913 24.9299 107.384 24.3276C106.863 23.7173 106.464 23.0052 106.188 22.1914C105.911 21.3776 105.772 20.4946 105.772 19.5425ZM108.031 19.2617V19.5425C108.031 20.2017 108.108 20.8242 108.263 21.4102C108.417 21.988 108.649 22.5007 108.958 22.9482C109.276 23.3958 109.671 23.7498 110.143 24.0103C110.615 24.2625 111.164 24.3887 111.791 24.3887C112.409 24.3887 112.95 24.2625 113.414 24.0103C113.886 23.7498 114.277 23.3958 114.586 22.9482C114.895 22.5007 115.127 21.988 115.282 21.4102C115.444 20.8242 115.526 20.2017 115.526 19.5425V19.2617C115.526 18.6107 115.444 17.9963 115.282 17.4185C115.127 16.8325 114.891 16.3158 114.574 15.8682C114.264 15.4124 113.874 15.0544 113.402 14.7939C112.938 14.5335 112.393 14.4033 111.766 14.4033C111.148 14.4033 110.602 14.5335 110.13 14.7939C109.667 15.0544 109.276 15.4124 108.958 15.8682C108.649 16.3158 108.417 16.8325 108.263 17.4185C108.108 17.9963 108.031 18.6107 108.031 19.2617ZM124.887 14.8672V26H122.628V12.792H124.826L124.887 14.8672ZM129.013 12.7188L129 14.8184C128.813 14.7777 128.634 14.7533 128.463 14.7451C128.301 14.7288 128.113 14.7207 127.902 14.7207C127.381 14.7207 126.921 14.8021 126.522 14.9648C126.124 15.1276 125.786 15.3555 125.509 15.6484C125.233 15.9414 125.013 16.2913 124.85 16.6982C124.695 17.097 124.594 17.5365 124.545 18.0166L123.91 18.3828C123.91 17.5853 123.987 16.8366 124.142 16.1367C124.305 15.4368 124.553 14.8184 124.887 14.2812C125.22 13.736 125.644 13.3128 126.156 13.0117C126.677 12.7025 127.296 12.5479 128.012 12.5479C128.174 12.5479 128.362 12.5682 128.573 12.6089C128.785 12.6414 128.931 12.6781 129.013 12.7188ZM138.337 26.2441C137.417 26.2441 136.583 26.0895 135.834 25.7803C135.094 25.4629 134.455 25.0194 133.918 24.4497C133.389 23.88 132.982 23.2046 132.697 22.4233C132.412 21.6421 132.27 20.7876 132.27 19.8599V19.3472C132.27 18.2729 132.429 17.3167 132.746 16.4785C133.063 15.6322 133.495 14.916 134.04 14.3301C134.585 13.7441 135.204 13.3006 135.896 12.9995C136.587 12.6984 137.303 12.5479 138.044 12.5479C138.988 12.5479 139.802 12.7106 140.485 13.0361C141.177 13.3617 141.743 13.8174 142.182 14.4033C142.622 14.9811 142.947 15.6647 143.159 16.4541C143.37 17.2354 143.476 18.0898 143.476 19.0176V20.0308H133.613V18.1875H141.218V18.0166C141.185 17.4307 141.063 16.861 140.852 16.3076C140.648 15.7542 140.323 15.2985 139.875 14.9404C139.427 14.5824 138.817 14.4033 138.044 14.4033C137.531 14.4033 137.059 14.5132 136.628 14.7329C136.197 14.9445 135.826 15.2619 135.517 15.6851C135.208 16.1082 134.968 16.625 134.797 17.2354C134.626 17.8457 134.541 18.5496 134.541 19.3472V19.8599C134.541 20.4865 134.626 21.0765 134.797 21.6299C134.976 22.1751 135.232 22.6553 135.566 23.0703C135.908 23.4854 136.319 23.8109 136.799 24.0469C137.287 24.2829 137.84 24.4009 138.459 24.4009C139.257 24.4009 139.932 24.2381 140.485 23.9126C141.039 23.5871 141.523 23.1517 141.938 22.6064L143.305 23.6929C143.02 24.1242 142.658 24.5352 142.219 24.9258C141.779 25.3164 141.238 25.6338 140.595 25.8779C139.96 26.1221 139.208 26.2441 138.337 26.2441Z" fill="#7BC3D1"/>
<path d="M171.207 19.7071C171.598 19.3166 171.598 18.6834 171.207 18.2929L164.843 11.9289C164.453 11.5384 163.819 11.5384 163.429 11.9289C163.038 12.3195 163.038 12.9526 163.429 13.3431L169.086 19L163.429 24.6569C163.038 25.0474 163.038 25.6805 163.429 26.0711C163.819 26.4616 164.453 26.4616 164.843 26.0711L171.207 19.7071ZM152.5 20H170.5V18H152.5V20Z" fill="#7BC3D1"/>
</svg>
