<svg width="65" height="65" viewBox="0 0 65 65" fill="none" xmlns="http://www.w3.org/2000/svg">
<g clip-path="url(#clip0_9_217)">
<path d="M1.31635 64.4558H41.1003" stroke="#5CBEFF" stroke-width="4"/>
<path d="M19.9554 53.0219H35.9318" stroke="#5CBEFF" stroke-width="4"/>
<path d="M20.1774 53.2669L31.9378 26.1185" stroke="#5CBEFF" stroke-width="4"/>
<path d="M49.2456 64.0073L31.9379 26.3428" stroke="#5CBEFF" stroke-width="4"/>
<path d="M49.2456 64.0073L31.9379 26.3428" stroke="#5CBEFF" stroke-width="4"/>
<path d="M64.2986 64.4923L32.1597 1.6814" stroke="#5CBEFF" stroke-width="4"/>
<path d="M0.650635 64.4557L31.4939 1.6814" stroke="#5CBEFF" stroke-width="4"/>
<path d="M64.3342 64.4558H49.0236" stroke="#5CBEFF" stroke-width="4"/>
<path d="M40.7026 64.2314L35.5373 52.7975" stroke="#5CBEFF" stroke-width="4"/>
<path d="M31.8742 0L32.7618 1.90565H30.8907L31.383 0.896775L31.605 0.448388L31.7159 0.224193L31.8742 0Z" fill="#5CBEFF"/>
<path d="M31.9378 25.2218L32.8102 27.1846L30.9392 27.2396L31.4316 26.1757L31.605 25.7824L31.8268 25.3339L31.9378 25.2218Z" fill="#5CBEFF"/>
<path d="M20.4616 51.6766L21.3492 53.4702H19.5741L19.9554 52.6306L20.1287 52.2372L20.3507 51.7889L20.4616 51.6766Z" fill="#5CBEFF"/>
<path d="M0.983487 62.9984L1.20538 63.8952L1.87107 64.9041H0L0.206857 64.3437L0.443788 63.8952L0.714222 63.4469L0.825169 63.2226L0.983487 62.9984Z" fill="#5CBEFF"/>
<path d="M40.543 62.7743L40.9868 63.7832L41.4792 64.9041H39.4337L39.6405 64.3437L40.2588 64.1194L40.1479 63.4469L40.2588 63.2226L40.543 62.7743Z" fill="#5CBEFF"/>
<path d="M64.0317 63.1105L65 64.9041H63.6687L63.9935 64.0179L64.0317 63.5889V63.4693V63.1105Z" fill="#5CBEFF"/>
<path d="M48.9208 63.1105L49.6338 63.7831L49.8889 64.9041H49.0236L48.5798 63.5889H48.9208V63.4693V63.1105Z" fill="#5CBEFF"/>
</g>
<defs>
<clipPath id="clip0_9_217">
<rect width="65" height="65" fill="white"/>
</clipPath>
</defs>
</svg>
