<svg width="105" height="105" viewBox="0 0 105 105" fill="none" xmlns="http://www.w3.org/2000/svg">
<path d="M91.3702 21.2604C94.7158 21.2604 97.4279 18.5483 97.4279 15.2027C97.4279 11.8571 94.7158 9.14502 91.3702 9.14502C88.0246 9.14502 85.3125 11.8571 85.3125 15.2027C85.3125 18.5483 88.0246 21.2604 91.3702 21.2604Z" fill="#BCE4FF"/>
<path d="M12.6202 75.7798C15.4088 75.7798 17.6683 78.0393 17.6683 80.8279C17.6683 83.6164 15.4088 85.8759 12.6202 85.8759C9.83166 85.8759 7.57214 83.6164 7.57214 80.8279C7.57214 78.0393 9.83166 75.7798 12.6202 75.7798Z" fill="#BCE4FF"/>
<path d="M64.0561 20.3437C64.0561 24.2408 62.2144 27.7058 59.3553 29.9209C58.6282 30.4863 57.8348 30.9689 56.9888 31.3566V39.2497V45.1782V45.7315V68.2701C55.3651 69.0496 53.55 69.4877 51.6378 69.4877C49.9598 69.4877 48.3586 69.1505 46.8926 68.5468V45.4528V39.0741V31.3566C46.0587 30.9729 45.2752 30.4984 44.5564 29.9431C41.679 27.7321 39.8253 24.2549 39.8253 20.3437C39.8253 15.0695 43.1974 10.5827 47.9022 8.9209V20.3437H55.9792V8.9209C60.6838 10.5827 64.0561 15.0695 64.0561 20.3437Z" fill="#33383F"/>
<path d="M70.1683 57.0209C70.1683 67.2019 61.8267 75.5454 51.6439 75.5454C41.4205 75.5454 33.0791 67.2019 33.0791 57.0209C33.0791 48.4392 38.9591 41.1841 46.8927 39.0742V45.453C42.3494 47.3288 39.1368 51.8095 39.1368 57.0151C39.1368 62.1984 42.3494 66.6731 46.8927 68.5467C48.3586 69.1505 49.9599 69.4877 51.6378 69.4877C53.5501 69.4877 55.3652 69.0495 56.9888 68.2701C61.5321 66.3964 64.7447 61.9218 64.7447 56.7384C64.7447 51.5329 61.5321 47.0522 56.9888 45.1784V39.2499C64.5892 41.5597 70.1683 48.6613 70.1683 57.0209Z" fill="#5CBEFF"/>
<path d="M51.6438 75.5454C61.8268 75.5454 70.1683 67.2019 70.1683 57.0209C70.1683 48.6615 64.5891 41.5597 56.9887 39.2497V31.3565C57.8346 30.9688 58.6282 30.4862 59.3553 29.9208C62.16 30.6801 64.783 31.8411 67.1756 33.3697L76.7891 27.2676L82.0369 32.5176L75.9511 42.1291C77.6733 44.851 78.9535 47.8698 79.6744 51.1167L90.764 53.5943V61.0251L79.6744 63.5029C78.9535 66.7498 77.6733 69.7686 75.9511 72.4905L82.0369 82.104L76.7893 87.3518L67.1758 81.2658C64.47 82.9883 61.4351 84.2684 58.1882 84.9893L55.7106 96.0789H48.2798L45.8022 84.9893C42.5553 84.2684 39.5365 82.9883 36.8146 81.2658L27.201 87.3518L21.9531 82.104L28.039 72.4903C26.3166 69.7845 25.0364 66.7496 24.3156 63.5027L13.226 61.0251V53.5943L24.3156 51.1167C25.0364 47.8696 26.3166 44.851 28.039 42.1291L21.9531 32.5176L27.201 27.2676L36.8146 33.3697C39.1852 31.8553 41.7799 30.7023 44.5563 29.9431C45.2752 30.4983 46.0586 30.9729 46.8926 31.3565V39.074C38.959 41.1841 33.079 48.4392 33.079 57.0207C33.079 67.2019 41.4205 75.5454 51.6438 75.5454Z" fill="#3256C1"/>
<path d="M92.2912 73.819C93.0946 74.0472 93.5611 74.8872 93.3309 75.6909C93.1007 76.4945 92.2627 76.961 91.4588 76.7308C90.6554 76.5006 90.1889 75.6626 90.4191 74.8589C90.6473 74.0553 91.4873 73.5888 92.2912 73.819Z" fill="#5CBEFF"/>
<path d="M89.2624 33.4343C90.0658 33.6645 90.5322 34.5024 90.3021 35.3061C90.0739 36.1098 89.2339 36.5762 88.43 36.346C87.6266 36.1178 87.1601 35.2778 87.3903 34.4742C87.6205 33.6705 88.4585 33.2041 89.2624 33.4343Z" fill="#5CBEFF"/>
<path d="M75.1277 11.2228C75.9312 11.453 76.3976 12.291 76.1674 13.0947C75.9392 13.8983 75.0992 14.3648 74.2954 14.1346C73.4919 13.9064 73.0255 13.0664 73.2557 12.2627C73.4859 11.4591 74.3239 10.9927 75.1277 11.2228Z" fill="#5CBEFF"/>
<path d="M68.0605 88.9631C68.8639 89.1933 69.3303 90.0313 69.1001 90.8349C68.87 91.6386 68.032 92.105 67.2281 91.8748C66.4247 91.6466 65.9582 90.8066 66.1884 90.003C66.4166 89.1993 67.2566 88.7329 68.0605 88.9631Z" fill="#5CBEFF"/>
<path d="M32.7237 89.9728C33.5274 90.201 33.9938 91.041 33.7636 91.8447C33.5334 92.6483 32.6954 93.1148 31.8918 92.8846C31.0881 92.6544 30.6217 91.8164 30.8519 91.0128C31.08 90.2091 31.92 89.7427 32.7237 89.9728Z" fill="#5CBEFF"/>
<path d="M30.7044 8.19404C31.5081 8.42423 31.9745 9.26221 31.7443 10.0659C31.5161 10.8695 30.6761 11.336 29.8725 11.1058C29.0688 10.8776 28.6024 10.0376 28.8326 9.23394C29.0628 8.43029 29.9008 7.96384 30.7044 8.19404Z" fill="#5CBEFF"/>
<path d="M13.1836 44.57C14.0197 44.57 14.6976 43.8922 14.6976 43.056C14.6976 42.2198 14.0197 41.542 13.1836 41.542C12.3474 41.542 11.6696 42.2198 11.6696 43.056C11.6696 43.8922 12.3474 44.57 13.1836 44.57Z" fill="#5CBEFF"/>
<path d="M11.5217 16.2707C12.3253 16.5009 12.7918 17.3389 12.5616 18.1425C12.3334 18.9462 11.4934 19.4126 10.6898 19.1824C9.8861 18.9543 9.41965 18.1143 9.64985 17.3106C9.88004 16.5069 10.718 16.0405 11.5217 16.2707Z" fill="#5CBEFF"/>
<path d="M51.6439 76.555C40.8505 76.555 32.0695 67.7921 32.0695 57.0209C32.0695 48.1603 38.0583 40.379 46.6332 38.0985C47.1721 37.9555 47.7252 38.2758 47.8683 38.8147C48.0117 39.3535 47.691 39.9065 47.1521 40.0499C39.4604 42.0956 34.0887 49.0744 34.0887 57.0209C34.0887 66.6787 41.9639 74.5357 51.6439 74.5357C61.3015 74.5357 69.1587 66.6787 69.1587 57.0209C69.1587 49.3565 64.0335 42.4461 56.695 40.2157C56.1615 40.0535 55.8604 39.4896 56.0228 38.9561C56.1849 38.4226 56.7491 38.1217 57.2822 38.2837C61.2076 39.4766 64.7422 41.9538 67.2348 45.2587C69.8143 48.6791 71.1777 52.7466 71.1777 57.0207C71.1779 67.7919 62.4151 76.555 51.6439 76.555Z" fill="black"/>
<path d="M46.8921 69.5563C46.7639 69.5563 46.6335 69.5319 46.5077 69.4798C41.4166 67.3804 38.1271 62.4874 38.1271 57.0149C38.1271 51.526 41.4166 46.6215 46.5073 44.5195C47.0228 44.3068 47.613 44.5522 47.8258 45.0673C48.0387 45.5826 47.7933 46.173 47.278 46.3858C42.9458 48.1745 40.1465 52.3468 40.1465 57.0149C40.1465 61.6666 42.9458 65.8266 47.2776 67.6132C47.7931 67.8258 48.0387 68.416 47.826 68.9313C47.6653 69.3209 47.2889 69.5563 46.8921 69.5563Z" fill="black"/>
<path d="M56.9892 69.2798C56.5924 69.2798 56.216 69.0446 56.0553 68.6549C55.8426 68.1394 56.0884 67.5491 56.6039 67.3367C60.9358 65.5501 63.735 61.3901 63.735 56.7384C63.735 52.0695 60.9358 47.8984 56.6039 46.1116C56.0884 45.899 55.8426 45.3087 56.0553 44.7934C56.2679 44.2779 56.8581 44.0324 57.3736 44.245C62.4647 46.3446 65.7542 51.2487 65.7542 56.7384C65.7542 62.2111 62.4647 67.1039 57.3736 69.2033C57.2478 69.2552 57.1174 69.2798 56.9892 69.2798Z" fill="black"/>
<path d="M55.7105 97.0883H48.2798C47.8071 97.0883 47.3976 96.7602 47.2944 96.2988L44.9551 85.8279C42.1021 85.1274 39.3715 83.9957 36.821 82.4566L27.741 88.2047C27.3422 88.4578 26.821 88.3998 26.487 88.0656L21.239 82.8178C20.9051 82.4841 20.8473 81.9631 21.0999 81.5639L26.847 72.4852C25.3124 69.9535 24.1809 67.2225 23.4765 64.35L13.0058 62.0103C12.5444 61.9071 12.2163 61.4978 12.2163 61.0249V53.5941C12.2163 53.1212 12.5444 52.7119 13.0058 52.6087L23.4768 50.2695C24.1772 47.4167 25.309 44.6861 26.8481 42.1354L21.0999 33.0573C20.8473 32.6583 20.9051 32.1374 21.2388 31.8036L26.4868 26.5536C26.8212 26.2188 27.3426 26.1617 27.742 26.4149L36.8194 32.1767C39.1337 30.7704 41.6438 29.6925 44.29 28.9688C44.8281 28.8214 45.3832 29.1386 45.5302 29.6763C45.6774 30.2143 45.3606 30.7695 44.8226 30.9165C42.1623 31.6441 39.6508 32.7555 37.3582 34.2202C37.0276 34.4316 36.6048 34.4322 36.2734 34.2218L27.343 28.5532L23.2381 32.6597L28.8919 41.5888C29.1007 41.9185 29.1007 42.3389 28.8919 42.6689C27.1881 45.3613 25.98 48.2773 25.3009 51.3354C25.2161 51.7178 24.9177 52.0165 24.5354 52.1019L14.2355 54.403V60.216L24.5356 62.5171C24.9179 62.6025 25.2163 62.9012 25.3011 63.2836C25.9854 66.3662 27.1931 69.2811 28.8905 71.9479C29.1007 72.2779 29.1011 72.6995 28.8919 73.03L23.2381 81.9609L27.3434 86.066L36.2742 80.4123C36.604 80.2037 37.0244 80.2035 37.3541 80.4121C40.0466 82.116 42.9623 83.3243 46.0207 84.0033C46.4029 84.0881 46.7017 84.3864 46.7872 84.7688L49.0883 95.0689H54.901L57.2021 84.7688C57.2876 84.3864 57.5864 84.0881 57.9687 84.0033C61.0514 83.3188 63.9664 82.1111 66.633 80.4137C66.9629 80.2037 67.3849 80.2031 67.7151 80.4123L76.6459 86.066L80.7512 81.9609L75.0976 73.03C74.8888 72.7003 74.8888 72.2797 75.0974 71.9499C76.8012 69.2575 78.0093 66.3417 78.6884 63.2834C78.7732 62.901 79.0714 62.6023 79.4539 62.5169L89.754 60.2158V54.4028L79.4539 52.1017C79.0716 52.0163 78.7732 51.7176 78.6884 51.3352C78.0093 48.2771 76.8012 45.3611 75.0974 42.6687C74.8886 42.3389 74.8888 41.9183 75.0976 41.5886L80.7512 32.6595L76.6463 28.553L67.7159 34.2216C67.3847 34.432 66.9619 34.4314 66.6314 34.22C64.3171 32.7417 61.7801 31.6229 59.0905 30.8949C58.5524 30.7494 58.2342 30.1949 58.3798 29.6565C58.5255 29.1184 59.0804 28.8004 59.6182 28.9458C62.2951 29.6703 64.8322 30.756 67.1697 32.1765L76.2471 26.4147C76.6467 26.1611 77.1679 26.2188 77.5023 26.5534L82.7503 31.8034C83.084 32.1374 83.1418 32.6581 82.8892 33.0571L77.141 42.1352C78.6803 44.6859 79.8121 47.4163 80.5126 50.2693L90.9833 52.6085C91.4447 52.7117 91.7728 53.121 91.7728 53.5939V61.0247C91.7728 61.4976 91.4447 61.9069 90.9833 62.0101L80.5126 64.3496C79.8117 67.2025 78.6801 69.9329 77.141 72.4834L82.8892 81.5635C83.142 81.9627 83.084 82.4837 82.7503 82.8174L77.5025 88.0652C77.1681 88.3994 76.6475 88.4571 76.2483 88.2043L67.1697 82.457C64.6382 83.9918 61.907 85.1232 59.0344 85.8277L56.6949 96.2984C56.5929 96.7602 56.1832 97.0883 55.7105 97.0883Z" fill="black"/>
<path d="M12.6202 86.8854C9.27998 86.8854 6.5625 84.1679 6.5625 80.8277C6.5625 77.4875 9.27998 74.77 12.6202 74.77C15.9604 74.77 18.6779 77.4875 18.6779 80.8277C18.6779 84.1679 15.9604 86.8854 12.6202 86.8854ZM12.6202 76.7893C10.3934 76.7893 8.58173 78.6009 8.58173 80.8277C8.58173 83.0545 10.3934 84.8662 12.6202 84.8662C14.847 84.8662 16.6587 83.0545 16.6587 80.8277C16.6587 78.6009 14.847 76.7893 12.6202 76.7893Z" fill="black"/>
<path d="M91.3702 22.2699C87.4733 22.2699 84.3029 19.0995 84.3029 15.2026C84.3029 11.3056 87.4733 8.13525 91.3702 8.13525C95.2671 8.13525 98.4375 11.3056 98.4375 15.2026C98.4375 19.0995 95.2671 22.2699 91.3702 22.2699ZM91.3702 10.1545C88.5867 10.1545 86.3221 12.4191 86.3221 15.2026C86.3221 17.9861 88.5867 20.2506 91.3702 20.2506C94.1537 20.2506 96.4182 17.9861 96.4182 15.2026C96.4182 12.4191 94.1537 10.1545 91.3702 10.1545Z" fill="black"/>
<path d="M51.6378 70.4972C49.8726 70.4972 48.1467 70.1552 46.5081 69.4802C46.1299 69.3245 45.883 68.9558 45.883 68.5467V31.9855C45.1987 31.6283 44.5471 31.2117 43.9393 30.742C40.6839 28.2404 38.8157 24.4499 38.8157 20.3436C38.8157 14.7907 42.3322 9.81754 47.5658 7.96893C47.875 7.85949 48.2176 7.90735 48.4852 8.09655C48.7527 8.28575 48.9118 8.59308 48.9118 8.9208V19.334H54.9695V8.9208C54.9695 8.59308 55.1284 8.28575 55.396 8.09655C55.6633 7.90714 56.006 7.85969 56.3153 7.96893C61.549 9.81754 65.0657 14.7907 65.0657 20.3436C65.0657 24.4301 63.2098 28.2117 59.9734 30.719C59.3561 31.199 58.6936 31.624 57.9984 31.9863V68.27C57.9984 68.6583 57.7754 69.0121 57.4257 69.1803C55.6054 70.0542 53.658 70.4972 51.6378 70.4972ZM47.9022 67.85C49.1067 68.267 50.3602 68.478 51.6378 68.478C53.1431 68.478 54.6004 68.1883 55.9791 67.616V31.3565C55.9791 30.9617 56.2091 30.6031 56.5679 30.4387C57.3381 30.0858 58.0674 29.6436 58.7354 29.124C61.4755 27.001 63.0464 23.8011 63.0464 20.3438C63.0464 16.1385 60.6636 12.3266 56.9888 10.451V20.3438C56.9888 20.9013 56.5366 21.3534 55.9791 21.3534H47.9022C47.3447 21.3534 46.8926 20.9013 46.8926 20.3438V10.4508C43.2176 12.3264 40.8349 16.1383 40.8349 20.3436C40.8349 23.8177 42.4156 27.0246 45.1716 29.1424C45.8327 29.653 46.5532 30.089 47.3146 30.4391C47.6726 30.6039 47.9022 30.9621 47.9022 31.3563V67.85Z" fill="black"/>
</svg>
