<svg id="e1gMqa7CduR1" xmlns="http://www.w3.org/2000/svg" xmlns:xlink="http://www.w3.org/1999/xlink" viewBox="0 0 727 706" shape-rendering="geometricPrecision" text-rendering="geometricPrecision" style="background-color:transparent"><style><![CDATA[#e1gMqa7CduR3_to {animation: e1gMqa7CduR3_to__to 4000ms linear infinite normal forwards}@keyframes e1gMqa7CduR3_to__to { 0% {transform: translate(363.400284px,560.5px)} 25% {transform: translate(363.400284px,500.5px)} 50% {transform: translate(363.400284px,560.5px)} 100% {transform: translate(363.400284px,560.5px)}}]]></style><path d="M185.7,352.3C83.5,546.1,0,705,0,705.3c0,.4,29.9.7,66.4.7h66.3L252.3,459.8L371.9,213.6l4.4,9.5C378.7,228.3,429,339,488,469.2L595.3,706h65.9c36.2,0,65.8-.2,65.8-.4C727,703.2,373.6,0.700012,372.2,0.200012C371.7,0.100012,287.8,158.5,185.7,352.3Z" fill="#fff"/><g id="e1gMqa7CduR3_to" transform="translate(363.400284,560.5)"><path d="M369.801,315c.7,0,132,288.8,132,290.2c0,.5-20.4.8-45.2.8h-45.3l-20.5-40.5c-11.3-22.2-20.7-40.5-21-40.5s-9.9,18.3-21.3,40.5l-20.9,40.5h-51.5c-30.6,0-51.3-.4-51.1-.9s32.7-66,72.2-145.5c39.6-79.5,72.3-144.6,72.6-144.6Z" transform="translate(-363.400284,-460.5)" fill="#5cbeff"/></g></svg>