<svg width="130" height="130" viewBox="0 0 130 130" fill="none" xmlns="http://www.w3.org/2000/svg">
<rect x="1.5" y="1.5" width="127" height="127" rx="63.5" fill="#0A141D" stroke="#7BC3D1" stroke-width="3"/>
<rect x="-0.5" y="0.5" width="76" height="76" transform="matrix(-1 0 0 1 102 26)" fill="#0A141D"/>
<path d="M61.4922 78.0352H67.5078C68.3384 78.0352 69.0117 78.7085 69.0117 79.5391C69.0117 80.3697 68.3384 81.043 67.5078 81.043H61.4922C60.6616 81.043 59.9883 80.3697 59.9883 79.5391C59.9883 78.7085 60.6616 78.0352 61.4922 78.0352Z" fill="black"/>
<path d="M30.5117 32.0156H72.9219V30.5117C72.9219 28.024 74.9458 26 77.4336 26H98.4883C100.976 26 103 28.024 103 30.5117C103 33.7065 103 81.067 103 82.5469C103 85.0346 100.976 87.0586 98.4883 87.0586H72.0195V94.1279C74.9616 94.7275 77.2843 97.0501 77.8839 99.9922H82.5469C83.3775 99.9922 84.0508 100.665 84.0508 101.496C84.0508 102.327 83.3775 103 82.5469 103H46.4531C45.6225 103 44.9492 102.327 44.9492 101.496C44.9492 100.665 45.6225 99.9922 46.4531 99.9922H51.1161C51.7157 97.0501 54.0384 94.7275 56.9805 94.1279V87.0586H30.5117C28.024 87.0586 26 85.0346 26 82.5469V36.5273C26 34.0396 28.024 32.0156 30.5117 32.0156ZM99.9922 30.5117C99.9922 29.6825 99.3175 29.0078 98.4883 29.0078H77.4336C76.6043 29.0078 75.9297 29.6825 75.9297 30.5117V35.0234H99.9922V30.5117ZM99.9922 38.0312H75.9297V66.0039H99.9922V38.0312ZM99.9922 69.0117H75.9297V76.5312C75.9297 77.3605 76.6043 78.0352 77.4336 78.0352H98.4883C99.3175 78.0352 99.9922 77.3605 99.9922 76.5312V69.0117ZM54.2313 99.9922H74.7687C74.1479 98.2418 72.4763 96.9844 70.5156 96.9844H58.4844C56.5239 96.9844 54.8521 98.2418 54.2313 99.9922ZM69.0117 93.9766V87.0586H59.9883V93.9766H69.0117ZM29.0078 82.5469C29.0078 83.3761 29.6825 84.0508 30.5117 84.0508H98.4883C99.3175 84.0508 99.9922 83.3761 99.9922 82.5469V80.7843C99.5215 80.9512 99.0156 81.043 98.4883 81.043H77.4336C74.9458 81.043 72.9219 79.019 72.9219 76.5312V74.877H29.0078V82.5469ZM29.0078 71.8691H72.9219V35.0234H30.5117C29.6825 35.0234 29.0078 35.6981 29.0078 36.5273V71.8691Z" fill="#7BC3D1"/>
<path d="M86.457 72.0195H89.4648C90.2955 72.0195 90.9688 72.6928 90.9688 73.5234C90.9688 74.354 90.2955 75.0273 89.4648 75.0273H86.457C85.6264 75.0273 84.9531 74.354 84.9531 73.5234C84.9531 72.6928 85.6264 72.0195 86.457 72.0195Z" fill="#7BC3D1"/>
<rect x="-0.5" y="0.5" width="76" height="76" transform="matrix(-1 0 0 1 102 26)" stroke="black"/>
</svg>
