<svg width="47" height="47" viewBox="0 0 47 47" fill="none" xmlns="http://www.w3.org/2000/svg">
<path d="M47 23.5C47 36.4787 36.4787 47 23.5 47C10.5213 47 0 36.4787 0 23.5C0 10.5213 10.5213 0 23.5 0C36.4787 0 47 10.5213 47 23.5Z" fill="#7BC3D1"/>
<g clip-path="url(#clip0_5_167)">
<path fill-rule="evenodd" clip-rule="evenodd" d="M18.352 35.6287C30.3663 35.6287 36.9378 26.0031 36.9378 17.6568C36.9378 17.3828 36.9378 17.1108 36.9187 16.8399C38.197 15.9471 39.3002 14.8385 40.1774 13.5701C38.9866 14.0812 37.721 14.4163 36.4268 14.5641C37.7895 13.7744 38.8099 12.5338 39.2986 11.0699C38.0155 11.8057 36.613 12.325 35.1501 12.6036C32.6762 10.0606 28.5388 9.93742 25.9073 12.3296C24.2119 13.872 23.4907 16.1717 24.0177 18.3652C18.7659 18.1097 13.8723 15.7115 10.5547 11.7661C8.82104 14.6524 9.70775 18.3433 12.578 20.1967C11.5385 20.1675 10.5212 19.8968 9.61223 19.4073V19.4875C9.61382 22.4938 11.8059 25.0824 14.8529 25.6782C13.8914 25.9321 12.8821 25.969 11.9046 25.7858C12.7595 28.3596 15.2127 30.1224 18.0065 30.1732C15.6934 31.9312 12.8359 32.8857 9.89401 32.8827C9.37503 32.8811 8.85606 32.8518 8.33868 32.7918C11.3267 34.6452 14.8019 35.6288 18.352 35.6241" fill="black"/>
</g>
<defs>
<clipPath id="clip0_5_167">
<rect width="31.8387" height="25.0161" fill="white" transform="translate(8.33868 10.6129)"/>
</clipPath>
</defs>
</svg>
