<svg width="105" height="105" viewBox="0 0 105 105" fill="none" xmlns="http://www.w3.org/2000/svg">
<path d="M52.5 100.625C79.0787 100.625 100.625 79.0787 100.625 52.5C100.625 25.9213 79.0787 4.375 52.5 4.375C25.9213 4.375 4.375 25.9213 4.375 52.5C4.375 79.0787 25.9213 100.625 52.5 100.625Z" fill="#FD3730"/>
<path d="M63.4375 87.5001C54.4355 87.5072 45.6301 84.8672 38.117 79.9085C30.6039 74.9498 24.7147 67.8913 21.1823 59.6113C17.6498 51.3314 16.6301 42.1955 18.2499 33.3404C19.8697 24.4854 24.0576 16.3021 30.2925 9.80884C23.5839 13.2968 17.7915 18.3165 13.385 24.4609C8.97847 30.6053 6.08174 37.7016 4.92963 45.1745C3.77751 52.6474 4.40244 60.2866 6.75376 67.4729C9.10507 74.6592 13.1166 81.1903 18.4632 86.5369C23.8097 91.8835 30.3409 95.895 37.5272 98.2463C44.7135 100.598 52.3527 101.223 59.8256 100.07C67.2985 98.9184 74.3947 96.0216 80.5392 91.6151C86.6836 87.2085 91.7032 81.4162 95.1912 74.7076C86.6614 82.921 75.2789 87.5067 63.4375 87.5001Z" fill="#D3241F"/>
<path d="M52.5 87.5C71.83 87.5 87.5 71.83 87.5 52.5C87.5 33.17 71.83 17.5 52.5 17.5C33.17 17.5 17.5 33.17 17.5 52.5C17.5 71.83 33.17 87.5 52.5 87.5Z" fill="#EAEFF0"/>
<path d="M52.5001 87.5C54.206 87.4864 55.9087 87.349 57.5947 87.0887C47.5225 85.7948 38.1636 81.1977 30.9829 74.0171C23.8023 66.8364 19.2052 57.4775 17.9113 47.4053C17.1382 52.3818 17.4557 57.4669 18.8418 62.3086C20.228 67.1504 22.6498 71.633 25.9395 75.4464C29.2291 79.2597 33.3082 82.3127 37.8943 84.3939C42.4804 86.4751 47.4639 87.5349 52.5001 87.5Z" fill="#D9E1E2"/>
<path d="M52.5 76.5625C65.7894 76.5625 76.5625 65.7894 76.5625 52.5C76.5625 39.2106 65.7894 28.4375 52.5 28.4375C39.2106 28.4375 28.4375 39.2106 28.4375 52.5C28.4375 65.7894 39.2106 76.5625 52.5 76.5625Z" fill="#FD3730"/>
<path d="M52.5 63.4375C58.5406 63.4375 63.4375 58.5406 63.4375 52.5C63.4375 46.4594 58.5406 41.5625 52.5 41.5625C46.4594 41.5625 41.5625 46.4594 41.5625 52.5C41.5625 58.5406 46.4594 63.4375 52.5 63.4375Z" fill="#EAEFF0"/>
<path d="M52.5 54.6875C52.0674 54.6874 51.6446 54.559 51.285 54.3187C50.9253 54.0783 50.645 53.7367 50.4795 53.337C50.3139 52.9374 50.2706 52.4976 50.355 52.0733C50.4394 51.6491 50.6476 51.2593 50.9535 50.9534L83.766 18.1409C84.1785 17.7424 84.7311 17.522 85.3047 17.5269C85.8782 17.5319 86.4269 17.762 86.8324 18.1676C87.238 18.5731 87.4681 19.1218 87.4731 19.6953C87.478 20.2689 87.2576 20.8215 86.8591 21.234L54.0466 54.0465C53.6364 54.4568 53.0801 54.6873 52.5 54.6875Z" fill="#2D4A60"/>
<path d="M99.5619 14.9494C99.3134 14.3494 98.8924 13.8366 98.3523 13.4761C97.8122 13.1155 97.1772 12.9232 96.5278 12.9238H92.0763V8.47219C92.0766 7.82301 91.8843 7.18832 91.5237 6.64845C91.1632 6.10858 90.6507 5.68778 90.0509 5.43931C89.4511 5.19084 88.7912 5.12585 88.1545 5.25258C87.5178 5.37932 86.933 5.69206 86.4741 6.15125L79.3822 13.2453C79.0768 13.5492 78.8347 13.9106 78.6699 14.3086C78.5051 14.7066 78.4208 15.1333 78.4219 15.5641V24.3928C78.4219 24.973 78.6524 25.5294 79.0626 25.9396C79.4728 26.3498 80.0292 26.5803 80.6094 26.5803H89.4359C89.8669 26.5815 90.2939 26.497 90.6919 26.3318C91.09 26.1666 91.4512 25.9239 91.7547 25.6178L98.851 18.5238C99.3095 18.065 99.6217 17.4805 99.7483 16.8443C99.8748 16.2081 99.81 15.5487 99.5619 14.9494Z" fill="#FAC100"/>
<path d="M80.6094 26.5804H89.436C89.867 26.5816 90.2939 26.4971 90.692 26.3319C91.09 26.1666 91.4513 25.9239 91.7547 25.6179L98.851 18.5238C99.3096 18.0647 99.6217 17.4799 99.7479 16.8434C99.8741 16.2068 99.8088 15.5472 99.5602 14.9478C99.3115 14.3484 98.8907 13.8362 98.351 13.4759C97.8112 13.1157 97.1768 12.9235 96.5279 12.9238H92.0763L79.0607 25.9395C79.264 26.1429 79.5055 26.3042 79.7712 26.4141C80.037 26.5241 80.3218 26.5806 80.6094 26.5804Z" fill="#FF9500"/>
</svg>
