<svg width="105" height="105" viewBox="0 0 105 105" fill="none" xmlns="http://www.w3.org/2000/svg">
<path d="M68.0859 64.6833V13.125H56.6016V74.422C60.7479 71.5708 64.5955 68.308 68.0859 64.6833Z" fill="#5CBEFF"/>
<path d="M45.1172 81.1765V39.375H33.6328V86.1328C37.5478 84.6896 41.3815 83.0351 45.1172 81.1765Z" fill="#5CBEFF"/>
<path d="M22.1484 89.7898V65.625H10.6641V92.3836C13.8206 91.8094 17.7466 90.9792 22.1484 89.7898Z" fill="#5CBEFF"/>
<path d="M28.875 19.4972L28.1121 19.0755C27.8904 18.9625 27.7086 18.7844 27.5913 18.5649C27.474 18.3455 27.4267 18.0954 27.4558 17.8483C27.5936 16.8919 27.5936 15.9206 27.4558 14.9641C27.4267 14.717 27.474 14.4669 27.5913 14.2475C27.7086 14.0281 27.8904 13.8499 28.1121 13.7369L28.875 13.3153C29.023 13.2373 29.1536 13.13 29.2587 12.9999C29.3639 12.8698 29.4414 12.7197 29.4865 12.5586C29.5317 12.3975 29.5435 12.2289 29.5213 12.0631C29.4991 11.8973 29.4433 11.7378 29.3573 11.5943L27.2343 8.09317C27.0497 7.79991 26.7597 7.58863 26.4239 7.50286C26.0882 7.4171 25.7323 7.46337 25.4297 7.63215L24.6569 8.05872C24.4211 8.18367 24.1544 8.23849 23.8883 8.21668C23.6223 8.19488 23.3681 8.09736 23.1558 7.93567C22.397 7.37722 21.5714 6.91591 20.6981 6.56247C20.4527 6.47532 20.2393 6.31608 20.0859 6.10559C19.9325 5.89511 19.8462 5.64319 19.8384 5.38286V4.54122C19.8307 4.20034 19.6882 3.87641 19.4423 3.64029C19.1963 3.40416 18.8668 3.27506 18.5259 3.28122H14.2915C13.9506 3.27506 13.6211 3.40416 13.3751 3.64029C13.1291 3.87641 12.9867 4.20034 12.979 4.54122V5.38614C12.9701 5.6465 12.8829 5.89812 12.7286 6.10802C12.5743 6.31793 12.3602 6.47633 12.1143 6.56247C11.2401 6.91463 10.4133 7.37485 9.65341 7.93239C9.44105 8.09408 9.18684 8.19159 8.92082 8.2134C8.6548 8.2352 8.3881 8.18039 8.15224 8.05544L7.37951 7.62887C7.07686 7.46009 6.721 7.41382 6.38525 7.49958C6.0495 7.58535 5.75944 7.79663 5.57482 8.08989L3.45841 11.5943C3.37233 11.7376 3.31636 11.8969 3.29391 12.0626C3.27146 12.2282 3.283 12.3967 3.32783 12.5578C3.37266 12.7188 3.44984 12.8691 3.55466 12.9993C3.65947 13.1295 3.78973 13.2371 3.93747 13.3153L4.70036 13.7369C4.92205 13.8499 5.1038 14.0281 5.22114 14.2475C5.33847 14.4669 5.38575 14.717 5.35661 14.9641C5.21881 15.9206 5.21881 16.8919 5.35661 17.8483C5.38575 18.0954 5.33847 18.3455 5.22114 18.5649C5.1038 18.7844 4.92205 18.9625 4.70036 19.0755L3.93747 19.4972C3.78946 19.5751 3.65888 19.6824 3.55373 19.8125C3.44859 19.9426 3.37107 20.0928 3.32593 20.2539C3.28078 20.4149 3.26896 20.5835 3.29117 20.7493C3.31339 20.9151 3.36918 21.0747 3.45513 21.2182L5.5781 24.7193C5.76272 25.0125 6.05278 25.2238 6.38853 25.3096C6.72428 25.3953 7.08014 25.3491 7.38279 25.1803L8.15552 24.7537C8.39138 24.6288 8.65808 24.5739 8.9241 24.5958C9.19012 24.6176 9.44433 24.7151 9.65669 24.8768C10.4166 25.4343 11.2434 25.8945 12.1176 26.2467C12.3631 26.3338 12.5765 26.4931 12.7299 26.7036C12.8833 26.914 12.9695 27.166 12.9773 27.4263V28.2712C12.9851 28.6121 13.1275 28.936 13.3735 29.1721C13.6194 29.4083 13.9489 29.5374 14.2898 29.5312H18.5193C18.8603 29.5374 19.1897 29.4083 19.4357 29.1721C19.6817 28.936 19.8241 28.6121 19.8318 28.2712V27.4263C19.8408 27.1657 19.9283 26.914 20.0829 26.704C20.2375 26.4941 20.4519 26.3358 20.6981 26.25C21.5724 25.8978 22.3991 25.4376 23.159 24.88C23.3714 24.7184 23.6256 24.6208 23.8916 24.599C24.1576 24.5772 24.4244 24.632 24.6602 24.757L25.4329 25.1836C25.7356 25.3523 26.0914 25.3986 26.4272 25.3129C26.7629 25.2271 27.053 25.0158 27.2376 24.7225L29.3508 21.2215C29.4375 21.0782 29.4941 20.9188 29.5171 20.7529C29.54 20.587 29.5289 20.4182 29.4844 20.2568C29.4398 20.0954 29.3628 19.9447 29.258 19.8141C29.1532 19.6835 29.0229 19.5756 28.875 19.4972ZM16.4062 21.3281C15.4328 21.3281 14.4812 21.0394 13.6718 20.4986C12.8624 19.9578 12.2315 19.1891 11.859 18.2897C11.4865 17.3904 11.389 16.4008 11.5789 15.446C11.7688 14.4913 12.2376 13.6143 12.9259 12.9259C13.6143 12.2376 14.4913 11.7688 15.446 11.5789C16.4008 11.389 17.3904 11.4865 18.2897 11.859C19.1891 12.2315 19.9578 12.8624 20.4986 13.6718C21.0394 14.4812 21.3281 15.4328 21.3281 16.4062C21.3281 17.7116 20.8095 18.9635 19.8865 19.8865C18.9635 20.8095 17.7116 21.3281 16.4062 21.3281Z" fill="#5CBEFF"/>
<path d="M101.205 64.9524L98.9576 41.3979L78.079 52.5329L83.2109 55.2891C60.7966 95.3991 3.28125 100.078 3.28125 100.078C3.28125 100.078 68.0351 111.398 95.5697 61.9254L101.205 64.9524Z" fill="#F7DF1E"/>
<path d="M1.73737 19.8517C1.63689 20.2227 1.61315 20.6104 1.66759 20.9909C1.72203 21.3714 1.85352 21.7369 2.05401 22.0649L4.16714 25.566C4.57337 26.219 5.21411 26.6918 5.9579 26.8873C6.70168 27.0829 7.4921 26.9864 8.16698 26.6176L8.78386 26.2764C9.57633 26.8458 10.4311 27.323 11.3317 27.6988V28.2714C11.3408 29.0481 11.6575 29.7895 12.2122 30.3332C12.767 30.8769 13.5147 31.1785 14.2914 31.172H18.521C19.2966 31.1768 20.0426 30.8744 20.5959 30.3309C21.1493 29.7874 21.465 29.0469 21.4741 28.2714V27.6988C22.3746 27.3227 23.2293 26.8455 24.022 26.2764L24.6389 26.6176C25.3133 26.9864 26.1033 27.0831 26.8468 26.8879C27.5903 26.6926 28.2309 26.2202 28.6371 25.5676L30.7535 22.0665C30.9533 21.7383 31.0843 21.3728 31.1385 20.9923C31.1926 20.6118 31.1688 20.2243 31.0685 19.8533C30.965 19.4753 30.7868 19.1219 30.5445 18.8139C30.3022 18.5059 30.0006 18.2496 29.6575 18.0601L29.1178 17.7632C29.2228 16.8617 29.2228 15.951 29.1178 15.0496L29.6575 14.7526C30.0006 14.5631 30.3022 14.3068 30.5445 13.9988C30.7868 13.6908 30.965 13.3374 31.0685 12.9594C31.1689 12.5884 31.1927 12.2007 31.1382 11.8202C31.0838 11.4396 30.9523 11.0742 30.7518 10.7462L28.6453 7.24675C28.2396 6.59311 27.5988 6.11981 26.8548 5.92419C26.1108 5.72858 25.3201 5.82553 24.6454 6.19511L24.0285 6.53635C23.2361 5.96692 22.3813 5.4897 21.4807 5.11393V4.54135C21.4716 3.76463 21.1549 3.02318 20.6002 2.47948C20.0454 1.93578 19.2977 1.63416 18.521 1.64073H14.2914C13.5158 1.63591 12.7698 1.93829 12.2165 2.48181C11.6631 3.02532 11.3474 3.76577 11.3383 4.54135V5.11393C10.4378 5.48998 9.58306 5.96718 8.79042 6.53635L8.17354 6.19511C7.4991 5.82628 6.70908 5.72957 5.96559 5.92483C5.2221 6.12008 4.58153 6.59249 4.17534 7.2451L2.05237 10.7462C1.85229 11.0747 1.72118 11.4404 1.66702 11.8212C1.61287 12.202 1.6368 12.5898 1.73737 12.961C1.84084 13.339 2.01901 13.6925 2.26134 14.0005C2.50368 14.3084 2.80527 14.5648 3.14831 14.7542L3.68807 15.0512C3.58307 15.9527 3.58307 16.8633 3.68807 17.7648L3.14831 18.0617C2.8056 18.2509 2.50422 18.5067 2.2619 18.8141C2.01958 19.1215 1.84124 19.4743 1.73737 19.8517ZM6.89057 16.4064C6.89027 16.0011 6.91989 15.5964 6.97917 15.1956C7.05838 14.6201 6.95931 14.0342 6.6953 13.5167C6.4313 12.9992 6.01504 12.5751 5.50261 12.3015L5.08589 12.0735L6.82003 9.20073L7.35159 9.4944C7.86252 9.76949 8.44124 9.89336 9.02001 9.85152C9.59878 9.80968 10.1537 9.60386 10.6197 9.25815C11.2692 8.78137 11.9764 8.38886 12.7246 8.09003C13.2743 7.88075 13.7483 7.51101 14.085 7.02884C14.4218 6.54667 14.6057 5.97436 14.613 5.38628V4.92198H18.1994V5.38628C18.2067 5.97436 18.3906 6.54667 18.7274 7.02884C19.0641 7.51101 19.5381 7.88075 20.0878 8.09003C20.8367 8.38911 21.5445 8.78218 22.1943 9.25979C22.6602 9.60529 23.2149 9.81085 23.7934 9.8524C24.372 9.89395 24.9503 9.76977 25.4608 9.4944L25.9924 9.20073L27.7265 12.0735L27.3164 12.2999C26.8029 12.5741 26.386 12.9993 26.122 13.518C25.8579 14.0367 25.7594 14.624 25.8398 15.2005C25.8962 15.5999 25.9237 16.0029 25.9218 16.4064C25.9221 16.8116 25.8925 17.2163 25.8332 17.6171C25.754 18.1926 25.8531 18.7786 26.1171 19.296C26.3811 19.8135 26.7974 20.2376 27.3098 20.5112L27.7216 20.7392L25.9874 23.612L25.4559 23.3183C24.9451 23.0428 24.3663 22.9187 23.7874 22.9606C23.2086 23.0024 22.6537 23.2085 22.1878 23.5546C21.5383 24.0313 20.831 24.4238 20.0828 24.7227C19.5332 24.932 19.0592 25.3017 18.7225 25.7839C18.3857 26.266 18.2017 26.8383 18.1945 27.4264V27.8907H14.613V27.4264C14.6057 26.8383 14.4218 26.266 14.085 25.7839C13.7483 25.3017 13.2743 24.932 12.7246 24.7227C11.9757 24.4236 11.2679 24.0305 10.6181 23.5529C10.1519 23.2082 9.59723 23.0031 9.01888 22.9615C8.44053 22.92 7.86229 23.0437 7.35159 23.3183L6.82003 23.612L5.08589 20.7392L5.49604 20.5128C6.00948 20.2386 6.42639 19.8134 6.69045 19.2947C6.95451 18.776 7.053 18.1887 6.97261 17.6122C6.91616 17.2128 6.88874 16.8098 6.89057 16.4064Z" fill="#404040"/>
<path d="M16.4062 22.9688C17.7042 22.9688 18.973 22.5839 20.0522 21.8628C21.1314 21.1417 21.9725 20.1168 22.4692 18.9176C22.9659 17.7185 23.0959 16.399 22.8427 15.126C22.5894 13.853 21.9644 12.6836 21.0466 11.7659C20.1289 10.8481 18.9595 10.2231 17.6865 9.96985C16.4135 9.71663 15.094 9.84659 13.8949 10.3433C12.6957 10.84 11.6708 11.6811 10.9497 12.7603C10.2286 13.8395 9.84375 15.1083 9.84375 16.4063C9.84375 18.1467 10.5352 19.8159 11.7659 21.0466C12.9966 22.2773 14.6658 22.9688 16.4062 22.9688ZM16.4062 13.125C17.0552 13.125 17.6896 13.3174 18.2292 13.678C18.7688 14.0385 19.1894 14.551 19.4377 15.1506C19.6861 15.7501 19.7511 16.4099 19.6245 17.0464C19.4978 17.6829 19.1853 18.2676 18.7264 18.7264C18.2676 19.1853 17.6829 19.4978 17.0464 19.6245C16.4099 19.7511 15.7501 19.6861 15.1506 19.4377C14.551 19.1894 14.0385 18.7688 13.678 18.2292C13.3174 17.6896 13.125 17.0552 13.125 16.4063C13.125 15.536 13.4707 14.7014 14.0861 14.0861C14.7014 13.4707 15.536 13.125 16.4062 13.125Z" fill="#404040"/>
<path d="M2.99906 101.694C8.2374 102.45 13.5256 102.807 18.818 102.762C39.8655 102.762 76.6779 97.5549 96.203 64.1288L100.428 66.3977C100.689 66.5383 100.984 66.6053 101.28 66.5915C101.577 66.5777 101.864 66.4838 102.112 66.3196C102.359 66.1554 102.557 65.9272 102.685 65.6592C102.813 65.3913 102.866 65.0937 102.838 64.7981L100.59 41.2437C100.564 40.975 100.473 40.7167 100.324 40.4918C100.174 40.267 99.9717 40.0824 99.734 39.9545C99.4962 39.8267 99.2306 39.7594 98.9607 39.7588C98.6907 39.7582 98.4248 39.8241 98.1865 39.9509L77.3062 51.0841C77.0446 51.2243 76.8258 51.4329 76.6733 51.6875C76.5208 51.9422 76.4403 52.2335 76.4403 52.5304C76.4403 52.8272 76.5208 53.1185 76.6733 53.3732C76.8258 53.6279 77.0446 53.8364 77.3062 53.9766L80.9501 55.9338C58.6573 93.4828 3.70781 98.3981 3.14836 98.4375C2.75029 98.4696 2.37759 98.6457 2.10012 98.9329C1.82264 99.2201 1.65945 99.5987 1.64113 99.9976C1.62282 100.397 1.75063 100.788 2.00062 101.1C2.25061 101.411 2.60561 101.621 2.99906 101.689V101.694ZM84.6448 56.0848C84.751 55.8946 84.8184 55.6853 84.8429 55.4688C84.8674 55.2524 84.8485 55.0333 84.7874 54.8242C84.7263 54.6151 84.6242 54.4203 84.4871 54.2511C84.3499 54.0819 84.1804 53.9418 83.9885 53.8388L81.5571 52.5263L97.5598 43.995L99.2824 62.0419L96.349 60.4669C95.9694 60.2624 95.5245 60.2156 95.1106 60.3365C94.6968 60.4575 94.3471 60.7365 94.1374 61.1133C75.0455 95.4319 37.1388 99.7992 16.9329 99.4777C35.6245 95.3991 68.8324 84.3823 84.6448 56.0897V56.0848Z" fill="#404040"/>
<path d="M58.2422 14.7656H66.4453V66.3502C67.5724 65.2509 68.67 64.114 69.7266 62.9262V13.125C69.7266 12.6899 69.5537 12.2726 69.246 11.9649C68.9384 11.6572 68.5211 11.4844 68.0859 11.4844H56.6016C56.1664 11.4844 55.7491 11.6572 55.4415 11.9649C55.1338 12.2726 54.9609 12.6899 54.9609 13.125V75.518C56.0667 74.7895 57.1605 74.0327 58.2422 73.2473V14.7656Z" fill="#404040"/>
<path d="M35.2734 41.0156H43.4766V81.9722C44.5703 81.4494 45.6641 80.9025 46.7578 80.3316V39.375C46.7578 38.9399 46.585 38.5226 46.2773 38.2149C45.9696 37.9072 45.5523 37.7344 45.1172 37.7344H33.6328C33.1977 37.7344 32.7804 37.9072 32.4727 38.2149C32.165 38.5226 31.9922 38.9399 31.9922 39.375V86.7202C33.0772 86.3363 34.1709 85.9321 35.2734 85.5077V41.0156Z" fill="#404040"/>
<path d="M23.7891 89.3304V65.625C23.7891 65.1899 23.6162 64.7726 23.3085 64.4649C23.0009 64.1572 22.5836 63.9844 22.1484 63.9844H10.6641C10.2289 63.9844 9.81164 64.1572 9.50397 64.4649C9.19629 64.7726 9.02344 65.1899 9.02344 65.625V92.6707C10.0177 92.5066 11.1218 92.3032 12.3047 92.0735V67.2656H20.5078V90.218C21.572 89.9445 22.6658 89.6487 23.7891 89.3304Z" fill="#404040"/>
</svg>
