<svg width="71" height="126" viewBox="0 0 71 126" fill="none" xmlns="http://www.w3.org/2000/svg">
<path d="M35.1421 125.143L6.40413 115.092L0 24.5942H70.3704L63.9594 115.078L35.1421 125.143Z" fill="#264DE4"/>
<path d="M58.4709 109.316L63.9494 31.9932H35.1851V117.449L58.4709 109.316Z" fill="#2965F1"/>
<path d="M14.6814 65.5576L15.471 76.6562H35.1853V65.5576H14.6814Z" fill="#EBEBEB"/>
<path d="M13.0947 43.0918L13.8956 54.1919H35.1851V43.0918H13.0947Z" fill="#EBEBEB"/>
<path d="M35.1851 94.3841L35.1465 94.3971L25.3352 91.0593L24.708 82.207H15.8645L17.0987 99.6346L35.1446 105.946L35.1851 105.932V94.3841Z" fill="#EBEBEB"/>
<path d="M16.5613 0H27.2313V5.62175H21.0233V11.2435H27.2313V16.8652H16.5613V0Z" fill="white"/>
<path d="M29.3651 0H40.0351V4.88839H33.8271V5.86607H40.0351V17.1094H29.3651V11.9766H35.5731V10.9989H29.3651V0Z" fill="white"/>
<path d="M42.1692 0H52.8392V4.88839H46.6312V5.86607H52.8392V17.1094H42.1692V11.9766H48.3772V10.9989H42.1692V0Z" fill="white"/>
<path d="M55.6325 65.5571L57.2229 43.0918H35.1547V54.1912H47.5683L46.7667 65.5571H35.1547V76.6563H46.0028L44.9802 91.0512L35.1547 94.3925V105.94L53.2149 99.6336L53.3474 97.7584L55.4176 68.5376L55.6325 65.5571Z" fill="white"/>
</svg>
