<svg width="112" height="59" viewBox="0 0 112 59" fill="none" xmlns="http://www.w3.org/2000/svg">
<path d="M1.05432 52.8094H4.65122V38.5701L10.2946 50.9521C10.9148 52.4379 11.845 52.9951 13.6435 52.9951C15.4419 52.9951 16.2481 52.4379 16.9303 50.9521L22.5117 38.5701V52.8094H26.1086V38.5701C26.1086 37.2081 25.5504 36.5271 24.3721 36.1557C21.6435 35.3508 19.783 36.0318 18.9768 37.8891L13.5194 50.1473L8.1861 37.8891C7.3799 36.0318 5.51944 35.3508 2.79076 36.1557C1.61246 36.5271 1.05432 37.1462 1.05432 38.5701V52.8094Z" fill="#00678F"/>
<path d="M29.0853 41.2318H32.6822V49.0325C32.6822 49.4658 32.8063 50.4564 34.7908 50.5183C35.845 50.5183 42.6047 50.5183 42.6667 50.5183V41.1699H46.2636C46.2636 41.1699 46.2636 53.9233 46.2636 53.9852C46.2636 57.1426 42.3566 57.8237 40.5582 57.8237H29.2094V55.4092H40.6202C42.9148 55.1615 42.6667 53.9852 42.6667 53.6138V52.6851H34.9768C31.3799 52.6851 29.0853 51.0755 29.0853 49.2801C29.0853 49.0944 29.2094 41.2937 29.0853 41.2318Z" fill="#00678F"/>
<path d="M106.853 32.1316C104.62 32.0696 102.946 32.3173 101.457 32.8745C101.023 33.0602 100.403 33.0602 100.341 33.5555C100.589 33.8031 100.589 34.1127 100.775 34.4222C101.085 34.9794 101.705 35.7223 102.202 36.0938C102.76 36.5271 103.38 36.9605 104 37.3939C105.054 38.0749 106.295 38.4463 107.349 39.1274C107.969 39.4988 108.589 39.9941 109.147 40.4275C109.457 40.6751 109.643 40.9846 110.015 41.1704V41.1085C109.829 40.8608 109.767 40.4894 109.581 40.2417C109.333 39.9941 109.023 39.7465 108.775 39.4369C107.969 38.3844 106.977 37.3939 105.922 36.651C105.054 36.0319 103.07 35.227 102.76 34.1746C102.76 34.1746 102.76 34.1746 102.698 34.1127C103.318 34.0508 104 33.865 104.62 33.6793C105.55 33.4317 106.419 33.4936 107.411 33.2459C107.845 33.1221 108.279 32.9983 108.713 32.8745C108.713 32.8126 108.713 32.6887 108.713 32.6268C108.217 32.1316 107.845 31.4505 107.349 31.0172C105.922 29.779 104.372 28.6027 102.76 27.6121C101.891 27.055 100.775 26.6835 99.907 26.2501C99.5969 26.0644 99.0388 26.0025 98.8527 25.7548C98.3566 25.1357 98.0465 24.3309 97.7364 23.6499C96.9302 22.1022 96.186 20.4306 95.4419 18.821C94.9457 17.7685 94.6357 16.6541 94.0155 15.6636C91.1628 10.9584 88.062 8.11057 83.2868 5.32463C82.2326 4.76744 81.0543 4.5198 79.7519 4.21025C79.0698 4.21025 78.3876 4.14834 77.7054 4.08643C77.2713 3.90071 76.8372 3.34352 76.4031 3.09588C74.8527 2.10532 70.7597 -0.0615188 69.5814 2.78633C68.8372 4.58171 70.6977 6.3771 71.3178 7.24383C71.814 7.86293 72.3721 8.60585 72.7442 9.28685C72.9302 9.78213 72.9923 10.2774 73.1783 10.7727C73.6124 12.0109 74.0465 13.311 74.6047 14.4873C74.9147 15.0445 75.2248 15.6636 75.6589 16.2207C75.907 16.5303 76.2791 16.6541 76.3411 17.1494C75.969 17.7066 75.907 18.5114 75.7209 19.1924C74.7287 22.2879 75.1008 26.1882 76.5271 28.4789C76.9612 29.1599 78.0155 30.7076 79.4419 30.0885C80.6822 29.5933 80.4341 28.0455 80.7442 26.6216C80.8062 26.312 80.7442 26.0644 80.9302 25.8787V25.9406C81.3023 26.6835 81.6744 27.4883 82.0465 28.2312C82.9147 29.5933 84.4031 31.0172 85.6434 31.9458C86.3256 32.4411 86.8217 33.3078 87.6899 33.6174V33.5555C87.6899 33.5555 87.6899 33.5555 87.6279 33.5555C87.4419 33.3078 87.1938 33.184 87.0078 32.9983C86.5116 32.503 85.9535 31.8839 85.5814 31.3267C84.4031 29.779 83.4109 28.0455 82.4806 26.312C82.0465 25.4453 81.6744 24.5167 81.3023 23.6499C81.1163 23.3404 81.1163 22.8451 80.8682 22.6594C80.4341 23.2785 79.814 23.7737 79.5659 24.5167C79.0698 25.6929 79.0078 27.1788 78.8217 28.6646C78.6977 28.6646 78.7597 28.6646 78.6977 28.7265C77.8295 28.4789 77.5194 27.6121 77.1473 26.8073C76.3411 24.8262 76.155 21.6688 76.8992 19.4401C77.0853 18.8829 77.9535 17.0256 77.5814 16.4684C77.3954 15.9731 76.8372 15.6636 76.5271 15.2302C76.155 14.7349 75.783 14.0539 75.5349 13.4348C74.8527 11.8871 74.5426 10.1536 73.7985 8.60585C73.4884 7.86293 72.8682 7.12001 72.4341 6.50091C71.938 5.758 71.3178 5.20081 70.8837 4.33407C70.7597 4.02452 70.5736 3.52925 70.7597 3.2197C70.8217 2.97206 70.9457 2.91015 71.1318 2.84824C71.5039 2.53869 72.4961 2.91015 72.8682 3.09588C73.9225 3.52925 74.7287 3.90071 75.5969 4.45789C75.969 4.70553 76.4031 5.26272 76.8992 5.38654C77.0853 5.38654 77.2713 5.38654 77.4574 5.38654C78.3256 5.57227 79.3178 5.44845 80.1861 5.69609C81.6744 6.19137 82.9767 6.87237 84.155 7.61529C87.7519 9.90595 90.7907 13.1872 92.7752 17.0875C93.0853 17.7066 93.2713 18.3257 93.5194 18.9448C94.0775 20.3068 94.8217 21.6688 95.3798 23.0308C95.938 24.3309 96.4961 25.631 97.3643 26.7454C97.7984 27.3026 99.4109 27.6121 100.217 27.9217C100.775 28.1693 101.643 28.417 102.14 28.6646C103.07 29.2218 104 29.9028 104.93 30.5219C105.364 30.8934 106.791 31.5744 106.853 32.1316Z" fill="#00678F"/>
<path d="M78.6357 8.17188C78.1396 8.17188 77.8295 8.23378 77.5194 8.29569C77.5194 8.29569 77.5194 8.29569 77.5194 8.3576C77.5194 8.3576 77.5194 8.3576 77.5814 8.3576C77.8295 8.79097 78.2016 9.10052 78.4496 9.47198C78.6977 9.90535 78.8837 10.3387 79.0698 10.7721L79.1318 10.7102C79.5039 10.4625 79.6899 9.96726 79.6899 9.34816C79.5039 9.16243 79.5039 8.9767 79.3799 8.79097C79.1938 8.48142 78.8217 8.3576 78.6357 8.17188Z" fill="#00678F"/>
<path d="M49.0543 52.8086H59.4729C60.7132 52.8086 61.8295 52.561 62.8218 52.1276C64.3721 51.3847 65.1163 50.456 65.1163 49.1559V46.4938C65.1163 45.4413 64.2481 44.5127 62.5737 43.8317C61.7055 43.5221 60.5892 43.3364 59.4729 43.3364H55.1318C53.6435 43.3364 52.9613 42.903 52.7752 41.9125C52.7752 41.7887 52.7752 41.6649 52.7752 41.6029V39.9933C52.7752 39.9314 52.7752 39.8076 52.7752 39.6837C52.9613 38.9408 53.3334 38.7551 54.6357 38.6313C54.7597 38.6313 54.8838 38.6313 54.9458 38.6313H65.2404V36.2168H55.1318C53.6435 36.2168 52.8993 36.2787 52.2171 36.5263C50.1086 37.2074 49.1163 38.2598 49.1163 40.1171V42.0982C49.1163 43.7079 50.9148 45.1318 54.0156 45.4414C54.3256 45.4414 54.6977 45.4414 55.0698 45.4414H58.7908C58.9148 45.4414 59.0388 45.4414 59.1628 45.4414C60.2791 45.5652 60.7752 45.7509 61.1473 46.1843C61.3954 46.4319 61.3954 46.6176 61.3954 46.8653V48.9702C61.3954 49.2178 61.2094 49.5274 60.8993 49.8369C60.5892 50.1465 60.0311 50.3322 59.3489 50.3322C59.2249 50.3322 59.1008 50.3322 58.9768 50.3322H49.0543V52.8086Z" fill="#E38D1A"/>
<path d="M87.6279 48.5991C87.6279 51.0755 89.4884 52.4375 93.2093 52.6852C93.5814 52.6852 93.8915 52.7471 94.2636 52.7471H103.69V50.3326H94.2016C92.093 50.3326 91.2868 49.8373 91.2868 48.5372V36.1553H87.6899L87.6279 48.5991Z" fill="#E38D1A"/>
<path d="M67.4109 48.7226V40.179C67.4109 38.0122 68.9613 36.6502 72 36.2787C72.3101 36.2787 72.6822 36.2168 72.9923 36.2168H79.876C80.2481 36.2168 80.5582 36.2168 80.9303 36.2787C83.969 36.7121 85.4574 38.0122 85.4574 40.179V48.7226C85.4574 50.5179 84.8372 51.4466 83.3489 52.0657L86.8838 55.285H82.7287L79.876 52.6848L76.9613 52.8705H73.1163C72.4962 52.8705 71.752 52.8086 71.0078 52.6229C68.5272 51.9419 67.4109 50.7037 67.4109 48.7226ZM71.3179 48.5368C71.3179 48.6607 71.3799 48.7845 71.3799 48.9083C71.5659 49.8989 72.4962 50.456 73.9225 50.456H77.2093L74.2326 47.732H78.3876L80.9923 50.0846C81.4884 49.8369 81.7985 49.4036 81.9225 48.9083C81.9225 48.7845 81.9225 48.6607 81.9225 48.5368V40.3647C81.9225 40.2409 81.9225 40.1171 81.9225 40.0552C81.7365 39.1266 80.8062 38.5694 79.3799 38.5694H73.9225C72.3101 38.5694 71.2559 39.2504 71.2559 40.3647L71.3179 48.5368Z" fill="#E38D1A"/>
<path d="M105.302 52.8094H105.798V50.7664H106.481V50.333H104.558V50.7664H105.302V52.8094ZM109.333 52.8094H109.829V50.3949H109.085L108.465 52.0665L107.783 50.3949H107.039V52.8094H107.535V50.9521L108.217 52.8094H108.589L109.271 50.9521L109.333 52.8094Z" fill="#E38D1A"/>
</svg>
