<svg width="88" height="53" viewBox="0 0 88 53" fill="none" xmlns="http://www.w3.org/2000/svg">
<path d="M20.7643 13.818H37.3619V15.1344H22.2857V25.0427H36.4629V26.3592H22.2857V37.2375H37.5348V38.554H20.7643V13.818ZM38.8488 13.818H40.6123L48.427 24.6963L56.4146 13.818L67.279 0L49.4297 25.8395L58.6276 38.554H56.7949L48.427 26.9828L40.0244 38.554H38.2264L47.4934 25.8395L38.8488 13.818ZM59.2846 15.1344V13.818H78.1989V15.1344H69.4852V38.554H67.9637V15.1344H59.2846ZM0 13.818H1.90181L28.1266 52.9801L17.2892 38.554L1.5906 15.6888L1.52145 38.554H0V13.818ZM78.0456 36.8402C77.7348 36.8402 77.5017 36.5999 77.5017 36.2893C77.5017 35.9787 77.7348 35.7383 78.0456 35.7383C78.3602 35.7383 78.5896 35.9787 78.5896 36.2893C78.5896 36.5999 78.3602 36.8402 78.0456 36.8402ZM79.5406 35.3907H80.3548C80.3659 35.8308 80.6878 36.1266 81.1615 36.1266C81.6906 36.1266 81.9904 35.8086 81.9904 35.2132V31.4416H82.8193V35.2169C82.8193 36.2893 82.1976 36.9068 81.1689 36.9068C80.203 36.9068 79.5406 36.3078 79.5406 35.3907ZM83.9035 35.3427H84.7251C84.7954 35.8492 85.2912 36.1709 86.0054 36.1709C86.6715 36.1709 87.16 35.8271 87.16 35.3538C87.16 34.947 86.8491 34.703 86.1423 34.5366L85.454 34.3702C84.4882 34.1446 84.0479 33.6787 84.0479 32.8948C84.0479 31.9445 84.825 31.3122 85.9906 31.3122C87.0749 31.3122 87.8668 31.9445 87.9149 32.843H87.1082C87.0305 32.3512 86.6012 32.0443 85.9795 32.0443C85.3245 32.0443 84.8879 32.3586 84.8879 32.8393C84.8879 33.2202 85.1691 33.4383 85.8648 33.601L86.4532 33.7453C87.5485 34.0004 88 34.4441 88 35.2465C88 36.2671 87.2081 36.9068 85.9425 36.9068C84.7584 36.9068 83.9627 36.2967 83.9035 35.3427Z" fill="white"/>
</svg>
