<svg width="90" height="103" viewBox="0 0 90 103" fill="none" xmlns="http://www.w3.org/2000/svg">
<path d="M44.805 102.809C43.4135 102.809 42.1148 102.431 40.9089 101.77L28.5713 94.3084C26.716 93.2694 27.6437 92.8916 28.2002 92.7027C30.7049 91.8527 31.1687 91.6638 33.7661 90.1526C34.0444 89.9637 34.4154 90.0581 34.6937 90.247L44.1557 96.0085C44.5267 96.1974 44.9905 96.1974 45.2688 96.0085L82.2816 74.1905C82.6527 74.0016 82.8382 73.6238 82.8382 73.1516V29.6101C82.8382 29.1378 82.6527 28.76 82.2816 28.5711L45.2688 6.84763C44.8978 6.65873 44.4339 6.65873 44.1557 6.84763L7.14283 28.5711C6.77177 28.76 6.58624 29.2323 6.58624 29.6101V73.1516C6.58624 73.5294 6.77177 74.0016 7.14283 74.1905L17.2541 80.1409C22.7272 82.9744 26.1594 79.6686 26.1594 76.3629V33.3881C26.1594 32.8214 26.6233 32.2547 27.2726 32.2547H32.0036C32.5602 32.2547 33.1167 32.7269 33.1167 33.3881V76.3629C33.1167 83.8244 29.1279 88.1691 22.1706 88.1691C20.037 88.1691 18.3673 88.1691 13.6363 85.8079L3.89609 80.1409C1.48422 78.7241 0 76.0795 0 73.246V29.7045C0 26.871 1.48422 24.2264 3.89609 22.8097L40.9089 0.991725C43.228 -0.330575 46.382 -0.330575 48.7011 0.991725L85.7139 22.8097C88.1258 24.2264 89.61 26.871 89.61 29.7045V73.246C89.61 76.0795 88.1258 78.7241 85.7139 80.1409L48.7011 101.959C47.4952 102.526 46.1037 102.809 44.805 102.809ZM56.215 72.8682C39.9813 72.8682 36.6418 65.3122 36.6418 58.8896C36.6418 58.3229 37.1056 57.7562 37.7549 57.7562H42.5787C43.1353 57.7562 43.5991 58.134 43.5991 58.7007C44.3412 63.7066 46.4748 66.1623 56.3077 66.1623C64.0999 66.1623 67.4394 64.3677 67.4394 60.1175C67.4394 57.6618 66.5118 55.8672 54.3597 54.6394C44.2484 53.6004 37.9405 51.3336 37.9405 43.1165C37.9405 35.466 44.2484 30.9324 54.8235 30.9324C66.6973 30.9324 72.5414 35.0882 73.2835 44.1554C73.2835 44.4388 73.1908 44.7221 73.0052 45.0055C72.8197 45.1944 72.5414 45.3833 72.2631 45.3833H67.4394C66.9756 45.3833 66.5118 45.0055 66.419 44.5332C65.3058 39.3385 62.4302 37.6384 54.8235 37.6384C46.2892 37.6384 45.2688 40.6608 45.2688 42.9276C45.2688 45.6666 46.4748 46.5167 57.9775 48.0279C69.3875 49.5391 74.7678 51.7114 74.7678 59.8341C74.675 68.1457 67.996 72.8682 56.215 72.8682Z" fill="#539E43"/>
</svg>
