<svg width="103" height="103" viewBox="0 0 103 103" fill="none" xmlns="http://www.w3.org/2000/svg">
<path d="M51.5 0C23.0656 0 0 23.0656 0 51.5C0 79.9344 23.0656 103 51.5 103C79.9344 103 103 79.9344 103 51.5C103 23.0656 79.9344 0 51.5 0Z" fill="#368FB9"/>
<path d="M81.8035 70.032C78.622 70.7876 77.0114 71.4835 73.0744 74.0486C66.9302 78.0254 60.2093 79.8746 60.2093 79.8746C60.2093 79.8746 59.6526 80.7098 58.0419 81.0876C55.2582 81.7636 44.7792 82.3403 43.8248 82.3601C41.2597 82.38 39.6888 81.704 39.2514 80.6501C37.9192 77.4686 41.1603 76.0767 41.1603 76.0767C41.1603 76.0767 40.4444 75.6393 40.0269 75.2416C39.6491 74.8638 39.2514 74.1082 39.1321 74.3866C38.635 75.5995 38.3765 78.5623 37.0443 79.8945C35.2149 81.7437 31.7551 81.1273 29.707 80.0536C27.4601 78.8605 29.8661 76.0569 29.8661 76.0569C29.8661 76.0569 28.6531 76.7727 27.6788 75.3013C26.8039 73.9491 25.9887 71.6426 26.2074 68.7991C26.446 65.558 30.0649 62.4163 30.0649 62.4163C30.0649 62.4163 29.4286 57.6242 31.5164 52.7129C33.4054 48.2389 38.4958 44.6399 38.4958 44.6399C38.4958 44.6399 34.2207 39.9074 35.8114 35.6522C36.8454 32.8684 37.263 32.8883 37.601 32.769C38.7941 32.3117 39.9473 31.8146 40.8024 30.88C45.0775 26.2669 50.5257 27.1418 50.5257 27.1418C50.5257 27.1418 53.1107 19.2876 55.4968 20.8186C56.2325 21.2959 58.8771 27.1816 58.8771 27.1816C58.8771 27.1816 61.7006 25.5312 62.0188 26.1476C63.7288 29.4683 63.9277 35.8113 63.1721 39.6688C61.8995 46.0318 58.718 49.4518 57.4454 51.5993C57.1472 52.0964 60.8655 53.6673 63.2118 60.1694C65.3792 66.1148 63.4504 71.1057 63.7885 71.6625C63.8481 71.7619 63.868 71.8017 63.868 71.8017C63.868 71.8017 66.3535 72.0005 71.3444 68.9184C74.0089 67.2681 77.1705 65.4188 80.7695 65.3791C84.2493 65.3194 84.4282 69.3957 81.8035 70.032ZM86.536 67.109C86.178 64.2854 83.7919 62.3368 80.7298 62.3766C76.1564 62.4362 72.3188 64.8024 69.7736 66.3733C68.7794 66.9897 67.9244 67.447 67.1887 67.785C67.3477 65.4785 67.2085 62.4561 66.0155 59.1354C64.5639 55.1586 62.6153 52.7128 61.2234 51.3011C62.834 48.9547 65.0412 45.5347 66.0751 40.2455C66.9699 35.7318 66.6915 28.7127 64.6435 24.7756C64.2259 23.9802 63.53 23.4036 62.6551 23.165C62.2971 23.0655 61.6211 22.8667 60.2888 23.2445C58.2805 19.0887 57.5846 18.6513 57.0477 18.2933C55.9342 17.5775 54.6219 17.4184 53.389 17.8758C51.7387 18.4723 50.3269 20.063 48.9946 22.8866C48.7958 23.3042 48.6168 23.7018 48.4578 24.0995C45.9325 24.2785 41.9556 25.1932 38.5952 28.832C38.1776 29.2893 37.3624 29.6273 36.5074 29.9455H36.5273C34.7775 30.5619 33.9821 31.9935 33.0078 34.5785C31.6556 38.1974 33.0475 41.7567 34.4195 44.0632C32.5504 45.7335 30.0649 48.398 28.7526 51.5198C27.122 55.3773 26.9431 59.1553 27.0027 61.2034C25.6109 62.6748 23.4634 65.4387 23.2248 68.5406C22.9066 72.8754 24.4775 75.8183 25.1734 76.892C25.3722 77.2101 25.591 77.4686 25.8296 77.7271C25.75 78.264 25.7302 78.8406 25.8495 79.4372C26.108 80.8291 26.9829 81.9625 28.3151 82.6783C30.9398 84.0702 34.5985 84.6667 37.4221 83.2549C38.4361 84.3287 40.2854 85.3627 43.6458 85.3627H43.8446C44.6997 85.3627 55.5564 84.786 58.718 84.0105C60.1298 83.6725 61.1041 83.076 61.7404 82.5391C63.7686 81.9028 69.3759 79.9939 74.6651 76.5738C78.4033 74.148 79.6958 73.631 82.4796 72.9549C85.1838 72.2988 86.874 69.8331 86.536 67.109Z" fill="white"/>
</svg>
