<svg width="47" height="47" viewBox="0 0 47 47" fill="none" xmlns="http://www.w3.org/2000/svg">
<path d="M47 23.5C47 36.4787 36.4787 47 23.5 47C10.5213 47 0 36.4787 0 23.5C0 10.5213 10.5213 0 23.5 0C36.4787 0 47 10.5213 47 23.5Z" fill="#7BC3D1"/>
<g clip-path="url(#clip0_10_269)">
<path d="M28.5696 10.6128H19.1885C14.8717 10.6128 11.371 14.1135 11.371 18.4303V27.8114C11.371 32.1282 14.8717 35.6289 19.1885 35.6289H28.5696C32.8864 35.6289 36.3871 32.1282 36.3871 27.8114V18.4303C36.3871 14.1135 32.8864 10.6128 28.5696 10.6128ZM34.0418 27.8114C34.0418 30.829 31.5871 33.2837 28.5696 33.2837H19.1885C16.1709 33.2837 13.7162 30.829 13.7162 27.8114V18.4303C13.7162 15.4128 16.1709 12.9581 19.1885 12.9581H28.5696C31.5871 12.9581 34.0418 15.4128 34.0418 18.4303V27.8114Z" fill="black"/>
<path d="M23.879 16.8669C20.4252 16.8669 17.625 19.6672 17.625 23.121C17.625 26.5748 20.4252 29.375 23.879 29.375C27.3328 29.375 30.1331 26.5748 30.1331 23.121C30.1331 19.6672 27.3328 16.8669 23.879 16.8669ZM23.879 27.0297C21.7245 27.0297 19.9703 25.2755 19.9703 23.121C19.9703 20.9649 21.7245 19.2122 23.879 19.2122C26.0335 19.2122 27.7878 20.9649 27.7878 23.121C27.7878 25.2755 26.0335 27.0297 23.879 27.0297Z" fill="black"/>
<path d="M30.6021 17.2312C31.0624 17.2312 31.4355 16.858 31.4355 16.3978C31.4355 15.9376 31.0624 15.5645 30.6021 15.5645C30.1419 15.5645 29.7688 15.9376 29.7688 16.3978C29.7688 16.858 30.1419 17.2312 30.6021 17.2312Z" fill="black"/>
</g>
<defs>
<clipPath id="clip0_10_269">
<rect width="25.0161" height="25.0161" fill="white" transform="translate(11.371 10.6128)"/>
</clipPath>
</defs>
</svg>
