<svg width="55" height="55" viewBox="0 0 55 55" fill="none" xmlns="http://www.w3.org/2000/svg">
<path d="M34.1062 15.1448H32.6599L33.0445 14.7603C33.3423 15.0091 33.7181 15.1452 34.1062 15.1448Z" fill="#5CBEFF"/>
<path d="M20.73 15.145H19.2001L19.6348 14.7354C19.9373 15.0016 20.327 15.1474 20.73 15.145Z" fill="#5CBEFF"/>
<path d="M34.1062 15.145V23.5051H27.4181V15.145H32.6599H34.1062Z" fill="#5CBEFF"/>
<path d="M34.1062 26.8491H27.4181V31.8652H34.1062V26.8491Z" fill="#5CBEFF"/>
<path d="M43.3023 26.8491H38.2863V31.8652H43.3023V26.8491Z" fill="#5CBEFF"/>
<path d="M45.0579 48.9031C45.2081 49.5269 45.106 50.1848 44.7738 50.7338C44.4416 51.2829 43.9061 51.6785 43.2839 51.835C42.6616 51.9914 42.0026 51.8958 41.4504 51.5691C40.8981 51.2424 40.497 50.7109 40.3344 50.0902L37.4502 38.5532H42.4663L45.0579 48.9031Z" fill="#5CBEFF"/>
<path d="M20.73 11.8008C21.1734 11.8008 21.5988 11.9769 21.9123 12.2905C22.2259 12.6041 22.402 13.0294 22.402 13.4728C22.402 13.9162 22.2259 14.3415 21.9123 14.6551C21.5988 14.9687 21.1734 15.1448 20.73 15.1448C20.327 15.1473 19.9373 15.0015 19.6348 14.7352C19.3776 14.5118 19.1948 14.2153 19.1109 13.8852C19.0268 13.5552 19.0457 13.2073 19.1647 12.8882C19.2838 12.5691 19.4975 12.2939 19.7773 12.0997C20.057 11.9053 20.3894 11.801 20.73 11.8008Z" fill="#5CBEFF"/>
<path d="M35.7781 13.4728C35.7768 13.9158 35.6002 14.3403 35.287 14.6537C34.9736 14.9669 34.5491 15.1435 34.1061 15.1448C33.6634 15.1427 33.2393 14.9658 32.9262 14.6527C32.6132 14.3396 32.4363 13.9156 32.4341 13.4728C32.4341 13.0294 32.6102 12.6041 32.9238 12.2905C33.2374 11.9769 33.6627 11.8008 34.1061 11.8008C34.5495 11.8008 34.9748 11.9769 35.2884 12.2905C35.602 12.6041 35.7781 13.0294 35.7781 13.4728Z" fill="#5CBEFF"/>
<path d="M23.238 15.145V31.8653H11.5338V15.145H19.2001H20.73H23.238Z" fill="#5CBEFF"/>
<path d="M17.386 38.5532L14.5017 50.0902C14.3391 50.7109 13.9381 51.2424 13.3858 51.5691C12.8335 51.8958 12.1746 51.9914 11.5523 51.835C10.9299 51.6785 10.3945 51.2829 10.0623 50.7338C9.73017 50.1848 9.62801 49.5269 9.77824 48.9031L12.3699 38.5532H17.386Z" fill="#5CBEFF"/>
<path d="M51.6625 6.78482V36.8813C51.6611 37.3243 51.4846 37.7488 51.1713 38.0621C50.858 38.3754 50.4334 38.552 49.9904 38.5533H4.84573C4.40269 38.552 3.97818 38.3754 3.66489 38.0621C3.35161 37.7488 3.17503 37.3243 3.17371 36.8813V6.78482C3.17503 6.34177 3.35161 5.91726 3.66489 5.60398C3.97818 5.2907 4.40269 5.11411 4.84573 5.11279H49.9904C50.4334 5.11411 50.858 5.2907 51.1713 5.60398C51.4846 5.91726 51.6611 6.34177 51.6625 6.78482ZM48.3184 34.3732V9.29286C48.3184 9.07113 48.2303 8.85849 48.0735 8.7017C47.9168 8.54493 47.7041 8.45684 47.4824 8.45684H7.35377C7.13204 8.45684 6.9194 8.54493 6.76262 8.7017C6.60584 8.85849 6.51776 9.07113 6.51776 9.29286V34.3732C6.51776 34.595 6.60584 34.8076 6.76262 34.9644C6.9194 35.1211 7.13204 35.2093 7.35377 35.2093H47.4824C47.7041 35.2093 47.9168 35.1211 48.0735 34.9644C48.2303 34.8076 48.3184 34.595 48.3184 34.3732Z" fill="#5CBEFF"/>
<path d="M49.9904 4.27686H4.84568C4.18112 4.27884 3.54435 4.54372 3.07442 5.01363C2.60451 5.48356 2.33963 6.12033 2.33765 6.78489V36.8814C2.33963 37.5459 2.60451 38.1827 3.07442 38.6526C3.54435 39.1225 4.18112 39.3874 4.84568 39.3894H11.2997L8.96723 48.7026C8.75659 49.544 8.88884 50.4347 9.33491 51.1786C9.78092 51.9226 10.5042 52.4588 11.3457 52.6695C12.1871 52.8801 13.0778 52.7479 13.8217 52.3018C14.5657 51.8558 15.1019 51.1325 15.3126 50.291L18.038 39.3894H36.7981L39.5235 50.291C39.6278 50.7077 39.8132 51.0997 40.0689 51.4447C40.3247 51.7897 40.646 52.0809 41.0144 52.3018C41.3827 52.5227 41.7909 52.6688 42.2158 52.7319C42.6407 52.7949 43.0737 52.7738 43.4904 52.6695C43.907 52.5651 44.299 52.3799 44.6441 52.124C44.9891 51.8682 45.2803 51.5469 45.5012 51.1786C45.722 50.8102 45.8682 50.402 45.9313 49.9772C45.9943 49.5523 45.9732 49.1192 45.8688 48.7026L43.5364 39.3894H49.9904C50.6549 39.3874 51.2917 39.1225 51.7616 38.6526C52.2316 38.1827 52.4964 37.5459 52.4984 36.8814V6.78489C52.4964 6.12033 52.2316 5.48356 51.7616 5.01363C51.2917 4.54372 50.6549 4.27884 49.9904 4.27686ZM13.6907 49.8814C13.6071 50.2281 13.4089 50.5364 13.1281 50.7564C12.8475 50.9764 12.5007 51.0952 12.1441 51.0936C11.9011 51.0947 11.6611 51.0403 11.4423 50.9345C11.2236 50.8287 11.0319 50.6744 10.8819 50.4833C10.7319 50.2922 10.6275 50.0693 10.5768 49.8316C10.5261 49.594 10.5302 49.348 10.5891 49.1122L13.0219 39.3894H16.3158L13.6907 49.8814ZM44.247 49.1122C44.3058 49.348 44.31 49.594 44.2593 49.8316C44.2085 50.0693 44.1042 50.2922 43.9541 50.4833C43.8041 50.6744 43.6124 50.8287 43.3937 50.9345C43.1749 51.0403 42.9349 51.0947 42.692 51.0936C42.3353 51.0952 41.9886 50.9764 41.7079 50.7564C41.4272 50.5364 41.229 50.2281 41.1454 49.8814L38.5203 39.3894H41.8142L44.247 49.1122ZM50.8264 36.8814C50.8264 37.1031 50.7383 37.3158 50.5815 37.4725C50.4248 37.6293 50.2121 37.7174 49.9904 37.7174H4.84568C4.62396 37.7174 4.41132 37.6293 4.25453 37.4725C4.09775 37.3158 4.00967 37.1031 4.00967 36.8814V6.78489C4.00967 6.56317 4.09775 6.35053 4.25453 6.19374C4.41132 6.03696 4.62396 5.94888 4.84568 5.94888H49.9904C50.2121 5.94888 50.4248 6.03696 50.5815 6.19374C50.7383 6.35053 50.8264 6.56317 50.8264 6.78489V36.8814Z" fill="#016EC5"/>
<path d="M47.4824 7.62061H7.35379C6.91074 7.62193 6.48623 7.79851 6.17295 8.11179C5.85967 8.42508 5.68308 8.84959 5.68176 9.29263V34.373C5.68308 34.816 5.85967 35.2405 6.17295 35.5539C6.48623 35.8671 6.91074 36.0437 7.35379 36.045H47.4824C47.9254 36.0437 48.3499 35.8671 48.6633 35.5539C48.9765 35.2405 49.1531 34.816 49.1544 34.373V9.29263C49.1531 8.84959 48.9765 8.42508 48.6633 8.11179C48.3499 7.79851 47.9254 7.62193 47.4824 7.62061ZM47.4824 34.373H7.35379V9.29263H47.4824V34.373Z" fill="#016EC5"/>
<path d="M23.2379 14.309H23.0875C23.225 13.9302 23.2691 13.5238 23.2163 13.1243C23.1634 12.7248 23.0151 12.3439 22.7837 12.0138C22.5524 11.6838 22.245 11.4144 21.8875 11.2284C21.53 11.0424 21.1329 10.9453 20.7299 10.9453C20.3269 10.9453 19.9298 11.0424 19.5724 11.2284C19.2148 11.4144 18.9074 11.6838 18.6761 12.0138C18.4448 12.3439 18.2964 12.7248 18.2435 13.1243C18.1907 13.5238 18.2348 13.9302 18.3724 14.309H11.5338C11.3121 14.309 11.0994 14.3971 10.9426 14.5539C10.7859 14.7106 10.6978 14.9233 10.6978 15.145V31.8653C10.6978 32.087 10.7859 32.2997 10.9426 32.4564C11.0994 32.6132 11.3121 32.7013 11.5338 32.7013H23.2379C23.4597 32.7013 23.6723 32.6132 23.8291 32.4564C23.9858 32.2997 24.074 32.087 24.074 31.8653V15.145C24.074 14.9233 23.9858 14.7106 23.8291 14.5539C23.6723 14.3971 23.4597 14.309 23.2379 14.309ZM20.7299 12.637C20.8953 12.637 21.0569 12.686 21.1944 12.7779C21.3318 12.8697 21.439 13.0003 21.5023 13.1531C21.5656 13.3058 21.5821 13.4739 21.5499 13.6361C21.5176 13.7983 21.438 13.9472 21.3211 14.0641C21.2042 14.1811 21.0552 14.2607 20.893 14.293C20.7308 14.3252 20.5627 14.3087 20.41 14.2454C20.2572 14.1821 20.1266 14.0749 20.0348 13.9375C19.9429 13.8 19.8939 13.6384 19.8939 13.473C19.8939 13.2513 19.982 13.0386 20.1388 12.8819C20.2955 12.7251 20.5082 12.637 20.7299 12.637ZM22.4019 31.0293H12.3698V15.981H17.1016L15.973 17.0428L17.1267 18.2634L19.5344 15.981H22.4019V31.0293Z" fill="#016EC5"/>
<path d="M34.1061 26.0132H27.418C27.1963 26.0132 26.9837 26.1013 26.8269 26.2581C26.6701 26.4148 26.582 26.6275 26.582 26.8492V31.8653C26.582 32.087 26.6701 32.2997 26.8269 32.4564C26.9837 32.6132 27.1963 32.7013 27.418 32.7013H34.1061C34.3279 32.7013 34.5405 32.6132 34.6973 32.4564C34.854 32.2997 34.9422 32.087 34.9422 31.8653V26.8492C34.9422 26.6275 34.854 26.4148 34.6973 26.2581C34.5405 26.1013 34.3279 26.0132 34.1061 26.0132ZM33.2701 31.0293H28.2541V27.6852H33.2701V31.0293Z" fill="#016EC5"/>
<path d="M43.3039 26.0132H38.2864C38.0647 26.0132 37.8519 26.1013 37.6951 26.2581C37.5383 26.4149 37.4502 26.6277 37.4502 26.8494V31.8669C37.4502 32.0887 37.5383 32.3014 37.6951 32.4582C37.8519 32.615 38.0647 32.7032 38.2864 32.7032H43.3039C43.5257 32.7032 43.7385 32.615 43.8953 32.4582C44.0521 32.3014 44.1402 32.0887 44.1402 31.8669V26.8494C44.1402 26.6277 44.0521 26.4149 43.8953 26.2581C43.7385 26.1013 43.5257 26.0132 43.3039 26.0132ZM42.4677 31.0307H39.1227V27.6857H42.4677V31.0307Z" fill="#016EC5"/>
<path d="M34.1061 10.9649C33.7042 10.9622 33.3075 11.0568 32.95 11.2406C32.5925 11.4245 32.2849 11.6921 32.0532 12.0207C31.8216 12.3492 31.6729 12.7289 31.6198 13.1274C31.5668 13.5259 31.611 13.9312 31.7486 14.309H27.418C27.1963 14.309 26.9837 14.3971 26.8269 14.5538C26.6701 14.7106 26.582 14.9233 26.582 15.145V23.5051C26.582 23.7268 26.6701 23.9395 26.8269 24.0962C26.9837 24.2531 27.1963 24.3411 27.418 24.3411H34.1061C34.3279 24.3411 34.5405 24.2531 34.6973 24.0962C34.854 23.9395 34.9422 23.7268 34.9422 23.5051V15.8305C35.4951 15.6299 35.9599 15.2413 36.2554 14.7327C36.5508 14.2241 36.6581 13.6279 36.5585 13.0482C36.4589 12.4685 36.1587 11.9422 35.7105 11.5614C35.2622 11.1806 34.6943 10.9695 34.1061 10.9649ZM33.2701 22.6691H28.2541V15.981H30.6367L30.2772 16.3321L31.4643 17.5192L33.0026 15.981H33.2701V22.6691ZM34.1061 14.309C33.9408 14.309 33.7792 14.26 33.6417 14.1681C33.5042 14.0762 33.397 13.9456 33.3338 13.7929C33.2705 13.6401 33.2539 13.472 33.2862 13.3098C33.3185 13.1476 33.398 12.9988 33.515 12.8818C33.6319 12.7648 33.7809 12.6852 33.943 12.653C34.1052 12.6207 34.2733 12.6373 34.4261 12.7005C34.5788 12.7638 34.7094 12.871 34.8013 13.0084C34.8932 13.146 34.9422 13.3076 34.9422 13.4729C34.9422 13.6946 34.854 13.9073 34.6973 14.0641C34.5405 14.2208 34.3279 14.309 34.1061 14.309Z" fill="#016EC5"/>
<path d="M44.1383 22.6689H37.4502V24.341H44.1383V22.6689Z" fill="#016EC5"/>
<path d="M44.1383 19.3247H37.4502V20.9967H44.1383V19.3247Z" fill="#016EC5"/>
<path d="M40.7942 15.981H37.4502V17.653H40.7942V15.981Z" fill="#016EC5"/>
<path d="M31.5982 18.4888H29.9261V20.1608H31.5982V18.4888Z" fill="#016EC5"/>
<path d="M20.73 19.3247H14.0419V20.9967H20.73V19.3247Z" fill="#016EC5"/>
<path d="M20.73 22.6689H14.0419V24.341H20.73V22.6689Z" fill="#016EC5"/>
<path d="M19.0579 26.0132H14.0419V27.6852H19.0579V26.0132Z" fill="#016EC5"/>
</svg>
