<svg width="64" height="66" viewBox="0 0 64 66" fill="none" xmlns="http://www.w3.org/2000/svg">
<path d="M51.5151 20.6394C51.6916 25.1525 50.2546 29.3242 47.7356 32.6202C44.716 36.5717 42.9852 41.3603 42.9852 46.3393V46.7998H23.2257V46.5264C23.2257 41.5654 21.6643 36.6946 18.6093 32.7935C16.1487 29.6514 14.6813 25.6884 14.6813 21.3834C14.6813 11.0834 23.081 2.74836 33.3853 2.90149C43.1078 3.04604 51.1341 10.8922 51.5151 20.6394Z" fill="#FFD161"/>
<path d="M42.9849 47.391H23.226C22.9004 47.391 22.6367 47.1261 22.6367 46.7998V46.5263C22.6367 41.6038 21.042 36.8563 18.1464 33.1585C15.494 29.7722 14.0923 25.7002 14.0923 21.3833C14.0923 16.235 16.106 11.4091 19.762 7.79496C23.3486 4.25028 28.0766 2.30811 33.1031 2.30811C33.2 2.30811 33.2973 2.3087 33.3942 2.31017C38.2483 2.3823 42.855 4.31294 46.3649 7.74618C49.8757 11.1803 51.9141 15.7511 52.1042 20.6165C52.278 25.0699 50.8928 29.4609 48.2032 32.9802C45.1754 36.9426 43.5745 41.5621 43.5745 46.3395V46.8001C43.5742 47.1264 43.3105 47.391 42.9849 47.391ZM23.8129 46.2085H42.3959C42.4251 41.2154 44.1081 36.3951 47.268 32.2604C49.7902 28.9596 51.0894 24.8405 50.9264 20.6623C50.5555 11.175 42.8467 3.63363 33.3765 3.49233C28.5589 3.41103 24.0177 5.24797 20.5891 8.63686C17.1593 12.0272 15.2709 16.5542 15.2709 21.3833C15.2709 25.4326 16.5856 29.2519 19.0728 32.4283C22.0683 36.2535 23.7455 41.1358 23.8129 46.2085Z" fill="#10003B"/>
<path d="M18.9179 19.2424C18.8719 19.2424 18.8253 19.237 18.7788 19.2258C18.4623 19.1492 18.2682 18.8297 18.3445 18.5122C19.4029 14.1194 22.3335 10.4476 26.3847 8.43835C26.6773 8.2935 27.03 8.41381 27.1744 8.70617C27.3185 8.99912 27.1988 9.35356 26.9071 9.49841C23.1697 11.3522 20.4663 14.739 19.4901 18.7901C19.425 19.0606 19.1836 19.2424 18.9179 19.2424Z" fill="#10003B"/>
<path d="M18.9157 26.1433C18.6499 26.1433 18.4086 25.9618 18.3435 25.6907C18.1181 24.7545 17.9813 23.7896 17.9366 22.8233C17.9215 22.4969 18.1729 22.2205 18.4979 22.2048C18.8152 22.1886 19.0987 22.4422 19.114 22.768C19.1549 23.6601 19.2814 24.5496 19.4891 25.4134C19.5654 25.7306 19.3709 26.0505 19.0545 26.1267C19.0079 26.1383 18.9614 26.1433 18.9157 26.1433Z" fill="#10003B"/>
<path d="M42.8962 51.2647H23.3149C22.0859 51.2647 21.0897 50.2653 21.0897 49.0323C21.0897 47.7996 22.0859 46.7998 23.3149 46.7998H42.8962C44.1249 46.7998 45.1214 47.7996 45.1214 49.0323C45.1214 50.2653 44.1249 51.2647 42.8962 51.2647Z" fill="#5CBEFF"/>
<path d="M42.8962 51.8562H23.3149C21.763 51.8562 20.5004 50.5892 20.5004 49.0322C20.5004 47.4752 21.763 46.2085 23.3149 46.2085H42.8962C44.4481 46.2085 45.7107 47.4752 45.7107 49.0322C45.7107 50.5892 44.4481 51.8562 42.8962 51.8562ZM23.3149 47.3909C22.4127 47.3909 21.679 48.127 21.679 49.0322C21.679 49.9373 22.4127 50.6737 23.3149 50.6737H42.8962C43.7984 50.6737 44.5321 49.9373 44.5321 49.0322C44.5321 48.127 43.7984 47.3909 42.8962 47.3909H23.3149Z" fill="#10003B"/>
<path d="M41.608 55.7291H24.6029C23.449 55.7291 22.5138 54.7908 22.5138 53.6332V53.3603C22.5138 52.2027 23.449 51.2642 24.6029 51.2642H41.608C42.7619 51.2642 43.6974 52.2027 43.6974 53.3603V53.6332C43.6974 54.7911 42.7619 55.7291 41.608 55.7291Z" fill="#5CBEFF"/>
<path d="M41.6079 56.321H24.6028C23.126 56.321 21.9244 55.1152 21.9244 53.6339V53.3607C21.9244 51.8788 23.126 50.6733 24.6028 50.6733H41.6079C43.085 50.6733 44.2866 51.8788 44.2866 53.3607V53.6339C44.2866 55.1152 43.085 56.321 41.6079 56.321ZM24.6028 51.8561C23.7758 51.8561 23.1031 52.5313 23.1031 53.361V53.6342C23.1031 54.4637 23.7758 55.1389 24.6028 55.1389H41.6079C42.435 55.1389 43.108 54.4637 43.108 53.6342V53.361C43.108 52.5313 42.435 51.8561 41.6079 51.8561H24.6028Z" fill="#10003B"/>
<path d="M41.6954 57.6172V58.3057C41.6954 59.3503 40.8518 60.1943 39.8129 60.1943H26.3982C25.3595 60.1943 24.5156 59.3506 24.5156 58.3057V57.6172C24.5156 56.5754 25.3595 55.7285 26.3982 55.7285H39.8129C40.8518 55.7285 41.6954 56.5754 41.6954 57.6172Z" fill="#5CBEFF"/>
<path d="M39.813 60.7855H26.3982C25.0352 60.7855 23.9264 59.6731 23.9264 58.3056V57.6171C23.9264 56.2496 25.0352 55.1372 26.3982 55.1372H39.813C41.176 55.1372 42.2848 56.2496 42.2848 57.6171V58.3056C42.2848 59.6731 41.176 60.7855 39.813 60.7855ZM26.3982 56.3197C25.6852 56.3197 25.105 56.9017 25.105 57.6171V58.3056C25.105 59.021 25.6852 59.603 26.3982 59.603H39.813C40.526 59.603 41.1062 59.021 41.1062 58.3056V57.6171C41.1062 56.9017 40.526 56.3197 39.813 56.3197H26.3982Z" fill="#10003B"/>
<path d="M36.3551 60.1943C36.3551 61.9946 34.9001 63.4543 33.1057 63.4543C31.3113 63.4543 29.856 61.9946 29.856 60.1943H36.3551Z" fill="#5CBEFF"/>
<path d="M33.1057 64.0455C30.9889 64.0455 29.2666 62.3179 29.2666 60.1943C29.2666 59.8679 29.5306 59.603 29.8559 59.603H36.3551C36.6804 59.603 36.9444 59.8679 36.9444 60.1943C36.9444 62.3182 35.2222 64.0455 33.1057 64.0455ZM30.5112 60.7855C30.7799 61.9741 31.8413 62.863 33.1057 62.863C34.37 62.863 35.4311 61.9738 35.6998 60.7855H30.5112Z" fill="#10003B"/>
</svg>
