<svg width="52" height="46" viewBox="0 0 52 46" fill="none" xmlns="http://www.w3.org/2000/svg">
<path d="M41.4725 13.5544L16.3525 38.6743L19.0903 41.4121L44.2102 16.2921L41.4725 13.5544Z" fill="#FFA442"/>
<path d="M38.7556 10.8376L13.6356 35.9575L16.3734 38.6953L41.4933 13.5753L38.7556 10.8376Z" fill="#E3452D"/>
<path d="M10.2437 42.0394H13.64L10.2437 38.6431V42.0394Z" fill="#4B6378"/>
<path d="M38.7996 5.31792L36.0619 8.05566L44.2271 16.2209L46.9648 13.4831L38.7996 5.31792Z" fill="#4B6378"/>
<path d="M38.7726 5.35945L39.4518 4.68019C41.6934 2.43863 45.3614 2.43863 47.603 4.68019C49.8445 6.92175 49.8445 10.5898 47.603 12.8313L46.9237 13.5106L38.7726 5.35945Z" fill="#FFEBDB"/>
<path d="M36.0385 8.12028L10.9186 33.2402L13.6563 35.978L38.7763 10.858L36.0385 8.12028Z" fill="#FFA442"/>
<path d="M10.9229 33.209L19.074 41.3601L18.3948 42.0394H13.64L10.2437 38.6431V33.8882L10.9229 33.209Z" fill="#FFEBDB"/>
<path d="M43.867 1.96289C42.1688 1.96289 40.5386 2.64215 39.3159 3.86482L9.76811 33.4126C9.63226 33.5485 9.56433 33.6844 9.56433 33.8881V42.0393C9.56433 42.4468 9.83604 42.7185 10.2436 42.7185H18.3947C18.5985 42.7185 18.7343 42.6506 18.8702 42.5147L48.418 12.9669C49.6407 11.7442 50.32 10.114 50.32 8.41586C50.32 4.88371 47.3991 1.96289 43.867 1.96289ZM11.8738 33.2089L36.0555 9.0272L37.8216 10.7933L13.6399 34.9749L11.8738 33.2089ZM38.7725 11.7442L40.5386 13.5103L16.3569 37.692L14.5909 35.9259L38.7725 11.7442ZM41.4896 14.4613L43.2556 16.2274L19.074 40.409L17.3079 38.643L41.4896 14.4613ZM37.0065 8.07623L38.7725 6.31016L45.9727 13.5103L44.2066 15.2764L37.0065 8.07623ZM10.9229 40.2732L12.0097 41.36H10.9229V40.2732ZM13.9116 41.36L10.9229 38.3713V34.1598L18.123 41.36H13.9116ZM47.4671 12.0159L46.9237 12.5594L39.7235 5.35919L40.2669 4.81578C41.2179 3.86482 42.5085 3.32141 43.867 3.32141C46.652 3.32141 48.9614 5.6309 48.9614 8.41586C48.9614 9.77439 48.418 11.065 47.4671 12.0159Z" fill="black"/>
<path d="M41.6934 5.56332L42.6443 6.51429C43.4594 5.69918 44.9538 5.69918 45.7689 6.51429L46.7199 5.56332C46.0406 4.88406 45.1576 4.54443 44.2066 4.54443C43.2557 4.54443 42.3726 4.88406 41.6934 5.56332Z" fill="black"/>
<rect x="0.681641" y="44.0771" width="31.7685" height="1.67203" rx="0.836013" fill="white"/>
</svg>
